<svg width="34" height="34" viewBox="0 0 34 34" fill="none" xmlns="http://www.w3.org/2000/svg">
<path d="M25.925 8.08912C25.7939 7.95779 25.6383 7.85359 25.4669 7.7825C25.2955 7.71141 25.1118 7.67482 24.9262 7.67482C24.7407 7.67482 24.557 7.71141 24.3856 7.7825C24.2142 7.85359 24.0586 7.95779 23.9275 8.08912L17 15.0025L10.0725 8.07495C9.94134 7.94379 9.78563 7.83975 9.61427 7.76877C9.4429 7.69779 9.25923 7.66125 9.07375 7.66125C8.88826 7.66125 8.70459 7.69779 8.53323 7.76877C8.36186 7.83975 8.20615 7.94379 8.075 8.07495C7.94384 8.20611 7.8398 8.36181 7.76882 8.53318C7.69783 8.70455 7.6613 8.88822 7.6613 9.0737C7.6613 9.25919 7.69783 9.44285 7.76882 9.61422C7.8398 9.78559 7.94384 9.94129 8.075 10.0725L15.0025 17L8.075 23.9275C7.94384 24.0586 7.8398 24.2143 7.76882 24.3857C7.69783 24.557 7.6613 24.7407 7.6613 24.9262C7.6613 25.1117 7.69783 25.2954 7.76882 25.4667C7.8398 25.6381 7.94384 25.7938 8.075 25.9249C8.20615 26.0561 8.36186 26.1601 8.53323 26.2311C8.70459 26.3021 8.88826 26.3386 9.07375 26.3386C9.25923 26.3386 9.4429 26.3021 9.61427 26.2311C9.78563 26.1601 9.94134 26.0561 10.0725 25.9249L17 18.9975L23.9275 25.9249C24.0587 26.0561 24.2144 26.1601 24.3857 26.2311C24.5571 26.3021 24.7408 26.3386 24.9262 26.3386C25.1117 26.3386 25.2954 26.3021 25.4668 26.2311C25.6381 26.1601 25.7938 26.0561 25.925 25.9249C26.0562 25.7938 26.1602 25.6381 26.2312 25.4667C26.3022 25.2954 26.3387 25.1117 26.3387 24.9262C26.3387 24.7407 26.3022 24.557 26.2312 24.3857C26.1602 24.2143 26.0562 24.0586 25.925 23.9275L18.9975 17L25.925 10.0725C26.4633 9.53412 26.4633 8.62745 25.925 8.08912Z" fill="#7B7B7B"/>
</svg>
