<svg width="34" height="34" viewBox="0 0 34 34" fill="none" xmlns="http://www.w3.org/2000/svg">
  <rect width="34" height="34" rx="17" fill="#2AABEE"/>
  <path d="M7.69516 16.8206C12.6517 14.6616 15.9561 13.2382 17.6083 12.5504C22.3311 10.5866 23.3113 10.2455 23.9514 10.234C24.0922 10.2317 24.4056 10.2665 24.6102 10.4319C24.7802 10.5713 24.828 10.7599 24.8519 10.8923C24.8731 11.0246 24.9023 11.3261 24.8784 11.5614C24.6234 14.2496 23.5158 20.7728 22.9527 23.7837C22.7163 25.0576 22.2461 25.4847 21.7919 25.5264C20.8038 25.6173 20.0547 24.874 19.0984 24.2474C17.603 23.2665 16.7583 22.6561 15.3053 21.699C13.6266 20.593 14.7156 19.9849 15.6719 18.9915C15.9216 18.7315 20.2725 14.775 20.3548 14.4161C20.3655 14.3712 20.3761 14.2039 20.2752 14.1157C20.1769 14.0272 20.0308 14.0575 19.9245 14.0814C19.7731 14.1154 17.3852 15.6954 12.7527 18.821C12.0753 19.2869 11.4617 19.514 10.9092 19.502C10.3036 19.489 9.13485 19.1589 8.26626 18.8768C7.20376 18.5307 6.35641 18.3476 6.43079 17.7598C6.46798 17.4538 6.89032 17.1406 7.69516 16.8206Z" fill="white"/>
</svg>
