<svg width="30" height="30" viewBox="0 0 30 30" fill="none" xmlns="http://www.w3.org/2000/svg">
  <path
    d="M24.575 12.05L24.125 10.875L26.45 10C25.3 7.35 23.25 5.225 20.675 3.925L19.675 6.15L18.525 5.625L19.525 3.375C18.125 2.825 16.6 2.5 15 2.5C13.675 2.5 12.4 2.775 11.2 3.125L12.05 5.425L10.875 5.875L10 3.55C7.35 4.7 5.225 6.75 3.925 9.325L6.15 10.325L5.625 11.475L3.375 10.475C2.825 11.875 2.5 13.4 2.5 15C2.5 16.325 2.775 17.6 3.125 18.8L5.425 17.95L5.875 19.125L3.55 20C4.7 22.65 6.75 24.775 9.325 26.075L10.325 23.85L11.475 24.375L10.475 26.625C11.875 27.175 13.4 27.5 15 27.5C16.325 27.5 17.6 27.225 18.8 26.875L17.95 24.575L19.125 24.125L20 26.45C22.65 25.3 24.775 23.25 26.075 20.675L23.85 19.675L24.375 18.525L26.625 19.525C27.175 18.125 27.5 16.6 27.5 15C27.5 13.675 27.225 12.4 26.875 11.2L24.575 12.05ZM17.875 21.925C14.05 23.5 9.65 21.7 8.075 17.875C6.5 14.05 8.3 9.65 12.125 8.075C15.95 6.5 20.35 8.3 21.925 12.125C22.3047 13.0341 22.501 14.0093 22.5029 14.9946C22.5047 15.9798 22.3119 16.9557 21.9356 17.8663C21.5593 18.7768 21.0069 19.6041 20.3101 20.3006C19.6132 20.9971 18.7857 21.5491 17.875 21.925Z"
    fill="white"/>
</svg>
