<svg width="34" height="34" viewBox="0 0 34 34" fill="none" xmlns="http://www.w3.org/2000/svg">
  <rect width="34" height="34" rx="17" fill="#60D669"/>
  <path d="M13.9331 12.2354C14.1139 12.2427 14.314 12.2512 14.5041 12.6705C14.6337 12.9565 14.8517 13.4893 15.0258 13.9148C15.1547 14.2299 15.2595 14.4862 15.2865 14.5398C15.3499 14.6657 15.3923 14.8128 15.3076 14.9809C15.2948 15.0062 15.283 15.0301 15.2718 15.0529C15.2083 15.1814 15.1616 15.2759 15.0542 15.4008C15.0116 15.4501 14.9676 15.5031 14.9237 15.5562C14.8364 15.6616 14.7491 15.7668 14.6733 15.8419C14.546 15.9674 14.4138 16.1038 14.5619 16.3556C14.7099 16.6078 15.2193 17.4321 15.9738 18.0996C16.7843 18.8166 17.4884 19.1198 17.846 19.2739C17.9163 19.3041 17.9731 19.3286 18.0148 19.3493C18.2685 19.4753 18.4167 19.4543 18.5646 19.286C18.7128 19.1181 19.1988 18.551 19.3681 18.2992C19.5373 18.0471 19.7065 18.089 19.9392 18.1729C20.1718 18.257 21.4196 18.8663 21.6734 18.9922C21.7228 19.0167 21.769 19.0388 21.8119 19.0593C21.9891 19.1442 22.1088 19.2015 22.1599 19.286C22.2233 19.3913 22.2233 19.8953 22.0118 20.4833C21.8004 21.0713 20.7641 21.6384 20.2987 21.6803C20.254 21.6844 20.2096 21.6896 20.1638 21.6949C19.7338 21.7452 19.1911 21.8086 17.2532 21.0504C14.8695 20.1176 13.2976 17.8063 12.9725 17.3282C12.9458 17.2889 12.9275 17.262 12.9178 17.2492L12.9151 17.2456C12.7786 17.0646 11.8816 15.8751 11.8816 14.6447C11.8816 13.4851 12.4559 12.8772 12.7203 12.5974C12.7384 12.5783 12.755 12.5607 12.7699 12.5445C13.0024 12.2927 13.2774 12.2295 13.4466 12.2295C13.4577 12.2295 13.4687 12.2295 13.4797 12.2295C13.6377 12.2295 13.7947 12.2294 13.9331 12.2354Z" fill="white"/>
  <path fill-rule="evenodd" clip-rule="evenodd" d="M8.24107 21.9194C7.35224 20.3915 6.88471 18.658 6.88527 16.8824C6.8875 11.3272 11.4439 6.80762 17.0427 6.80762C19.7598 6.80872 22.3098 7.85814 24.2277 9.7623C26.1453 11.6667 27.201 14.1983 27.2 16.8904C27.1976 22.4455 22.6406 26.9657 17.0427 26.9657H17.0383C15.3386 26.9651 13.6682 26.5419 12.1846 25.7393L6.8 27.1402L8.24107 21.9194ZM9.89092 21.3396L10.092 21.6563L9.23876 24.7464L12.4341 23.9152L12.7425 24.0966C14.0383 24.8596 15.5243 25.2633 17.0394 25.2641H17.0427C21.6958 25.2641 25.483 21.5071 25.485 16.8898C25.4856 14.652 24.6085 12.5479 23.0145 10.9651C21.4204 9.38245 19.3011 8.51015 17.0459 8.5092C12.3891 8.5092 8.60206 12.2657 8.6003 16.883C8.59967 18.4653 9.04576 20.0062 9.89092 21.3396Z" fill="white"/>
</svg>
