<svg width="435" height="75" viewBox="0 0 435 75" fill="none" xmlns="http://www.w3.org/2000/svg">
  <path d="M236 13H435V-4.47035e-07H236V13Z" fill="#016BB7"/>
  <path d="M405.488 54.9378L400.272 60.8313V73.3297H387.096V24.7588H400.272V43.4894L416.225 24.7588H431.501L414.159 44.8781L432.889 73.3297H417.613L405.488 54.9378Z" fill="black"/>
  <path d="M345.468 49.0467C345.468 53.0435 346.756 56.329 349.398 58.9709C352.039 61.6129 355.359 62.9338 359.322 62.9338C361.794 62.9338 364.131 62.4258 366.299 61.3758C368.501 60.3596 370.093 59.3096 371.041 58.2258L372.498 56.6677L380.118 64.9999C379.949 65.2709 379.678 65.6435 379.339 66.0838C379.001 66.5241 378.188 67.3032 376.901 68.4209C375.614 69.5387 374.259 70.5209 372.768 71.3677C371.278 72.2483 369.348 73.0274 366.909 73.7048C364.47 74.3822 361.964 74.7209 359.322 74.7209C351.802 74.7209 345.401 72.2145 340.151 67.1677C334.901 62.1209 332.259 56.0919 332.259 49.0467C332.259 42.0354 334.901 36.0064 340.151 30.9596C345.401 25.9129 351.802 23.3726 359.322 23.3726C361.93 23.3726 364.402 23.7113 366.739 24.3887C369.11 25.0661 371.041 25.879 372.565 26.8274C374.089 27.7758 375.41 28.7242 376.562 29.6726C377.714 30.6209 378.527 31.4338 379.001 32.1113L379.78 33.0935L371.786 41.4258C371.651 41.2564 371.481 41.0193 371.244 40.7484C371.041 40.4774 370.499 39.9693 369.686 39.258C368.873 38.5467 368.027 37.9032 367.146 37.3613C366.265 36.8193 365.114 36.3113 363.691 35.8709C362.268 35.4306 360.812 35.1935 359.356 35.1935C355.359 35.1935 352.073 36.5145 349.431 39.1564C346.789 41.7984 345.468 45.0838 345.468 49.0467Z" fill="black"/>
  <path d="M286.127 49.0462C286.127 53.043 287.414 56.3285 290.022 58.9704C292.596 61.6124 295.814 62.9333 299.675 62.9333C303.503 62.9333 306.72 61.6124 309.295 58.9704C311.869 56.3285 313.156 53.043 313.156 49.0462C313.156 45.0833 311.869 41.7979 309.295 39.1559C306.72 36.514 303.503 35.193 299.675 35.193C295.814 35.193 292.596 36.514 290.022 39.1559C287.414 41.7979 286.127 45.0833 286.127 49.0462ZM326.704 49.0462C326.704 56.0914 324.062 62.1204 318.812 67.1672C313.562 72.214 307.161 74.7204 299.641 74.7204C292.122 74.7204 285.72 72.214 280.47 67.1672C275.22 62.1204 272.612 56.0914 272.612 49.0462C272.612 42.035 275.22 36.0059 280.47 30.9592C285.72 25.9124 292.122 23.3721 299.641 23.3721C307.161 23.3721 313.562 25.9124 318.812 30.9592C324.062 36.0059 326.704 42.035 326.704 49.0462Z" fill="black"/>
  <path d="M271.256 73.3297H236.572V24.7588H249.748V61.5426H271.256V73.3297Z" fill="black"/>
  <path d="M177.179 49.0459C177.179 54.0927 178.906 58.3604 182.395 61.8491C185.883 65.3717 190.151 67.0991 195.198 67.0991C200.245 67.0991 204.512 65.3717 208.001 61.8491C211.49 58.3604 213.251 54.0927 213.251 49.0459C213.251 44.033 211.49 39.7653 208.001 36.2765C204.512 32.7878 200.245 31.0265 195.198 31.0265C190.151 31.0265 185.883 32.7878 182.395 36.2765C178.906 39.7653 177.179 44.033 177.179 49.0459ZM169.558 49.0459C169.558 42.0685 171.996 36.1749 176.941 31.3314C181.853 26.5217 187.95 24.083 195.198 24.083C202.446 24.083 208.543 26.5217 213.454 31.3314C218.4 36.1749 220.838 42.0685 220.838 49.0459C220.838 56.0233 218.4 61.9507 213.454 66.7604C208.543 71.6039 202.446 74.0088 195.198 74.0088C187.95 74.0088 181.853 71.6039 176.941 66.7604C171.996 61.9507 169.558 56.0233 169.558 49.0459Z" fill="black"/>
  <path d="M123.765 73.3312V24.7603H144.223C148.694 24.7603 152.42 26.2167 155.401 29.0619C158.347 31.9409 159.838 35.4973 159.838 39.6973C159.838 41.6957 159.499 43.5586 158.822 45.286C158.144 47.0135 157.331 48.3683 156.383 49.3506C155.434 50.3667 154.486 51.2135 153.538 51.9586C152.589 52.7038 151.776 53.2118 151.099 53.4828L150.117 53.9231L161.226 73.3312H152.894L142.496 54.6006H131.386V73.3312H123.765ZM152.183 39.6973C152.183 37.428 151.404 35.5312 149.88 34.007C148.355 32.4828 146.459 31.7038 144.223 31.7038H131.386V47.657H144.223C146.459 47.657 148.355 46.9118 149.88 45.3877C151.404 43.8635 152.183 41.9667 152.183 39.6973Z" fill="black"/>
  <path d="M97.0736 73.332L76.2769 73.3659V24.7949H96.0236C99.9527 24.7949 103.306 26.082 106.083 28.6901C108.861 31.2643 110.249 34.2449 110.249 37.632C110.249 39.5627 109.843 41.3578 109.03 42.9836C108.217 44.6094 107.438 45.7272 106.659 46.3707L105.406 47.353C105.575 47.4207 105.812 47.5901 106.151 47.7933C106.49 47.9965 107.066 48.4707 107.946 49.182C108.793 49.8933 109.538 50.6723 110.148 51.553C110.758 52.3997 111.333 53.5175 111.875 54.8723C112.417 56.2272 112.688 57.6497 112.688 59.1062C112.688 63.0013 111.198 66.3546 108.217 69.132C105.237 71.9433 101.511 73.332 97.0736 73.332ZM83.8978 66.761H97.0736C99.3091 66.761 101.206 65.982 102.764 64.4578C104.288 62.9336 105.067 61.0368 105.067 58.8013C105.067 56.532 104.288 54.6352 102.764 53.111C101.24 51.553 99.343 50.8078 97.0736 50.8078H83.8978V66.761ZM96.0236 31.3998H83.8978V44.5756H96.0236C97.9204 44.5756 99.4785 43.932 100.732 42.6788C101.985 41.4256 102.628 39.8675 102.628 37.9707C102.628 36.0739 101.985 34.5159 100.732 33.2627C99.4785 32.0094 97.9204 31.3998 96.0236 31.3998Z" fill="black"/>
  <path d="M54.8032 73.3297V24.7588H62.4242V73.3297H54.8032Z" fill="black"/>
  <path d="M19.1032 73.3307L0 24.7598H7.99355L22.8968 63.6097L37.8339 24.7598H45.7936L26.7242 73.3307H19.1032Z" fill="black"/>
</svg>
