<svg width="60" height="60" viewBox="0 0 60 60" fill="none" xmlns="http://www.w3.org/2000/svg">
<path d="M27.7768 2.45387C28.9676 1.13955 31.0324 1.13956 32.2232 2.45387L32.8643 3.16145C33.7844 4.17703 35.2758 4.44 36.4878 3.80036L37.3322 3.35472C38.9007 2.52693 40.841 3.23317 41.5105 4.8755L41.8709 5.75967C42.3882 7.0287 43.6997 7.78588 45.0573 7.59934L46.0032 7.46938C47.7602 7.22797 49.342 8.55526 49.4094 10.3275L49.4457 11.2816C49.4977 12.651 50.4711 13.8111 51.8107 14.1002L52.744 14.3016C54.4777 14.6757 55.5101 16.4639 54.9673 18.1523L54.675 19.0613C54.2556 20.3659 54.7735 21.789 55.9334 22.5187L56.7416 23.0272C58.2427 23.9717 58.6013 26.0052 57.5137 27.4061L56.9282 28.1603C56.0878 29.2428 56.0878 30.7572 56.9282 31.8397L57.5137 32.5939C58.6013 33.9948 58.2427 36.0283 56.7416 36.9728L55.9334 37.4813C54.7735 38.211 54.2556 39.6341 54.675 40.9387L54.9673 41.8477C55.5101 43.5361 54.4777 45.3243 52.744 45.6984L51.8107 45.8998C50.4711 46.1889 49.4977 47.349 49.4457 48.7184L49.4094 49.6725C49.342 51.4447 47.7602 52.772 46.0032 52.5306L45.0573 52.4007C43.6996 52.2141 42.3882 52.9713 41.8709 54.2403L41.5105 55.1245C40.841 56.7668 38.9007 57.4731 37.3322 56.6453L36.4878 56.1996C35.2758 55.56 33.7844 55.823 32.8643 56.8385L32.2232 57.5461C31.0324 58.8604 28.9676 58.8604 27.7768 57.5461L27.1357 56.8385C26.2156 55.823 24.7242 55.56 23.5122 56.1996L22.6678 56.6453C21.0993 57.4731 19.159 56.7668 18.4895 55.1245L18.1291 54.2403C17.6118 52.9713 16.3004 52.2141 14.9427 52.4007L13.9968 52.5306C12.2398 52.772 10.658 51.4447 10.5906 49.6725L10.5543 48.7184C10.5023 47.349 9.52886 46.1889 8.18929 45.8998L7.25596 45.6984C5.52234 45.3243 4.4899 43.5361 5.03274 41.8477L5.32499 40.9387C5.74444 39.6341 5.2265 38.211 4.06657 37.4812L3.25842 36.9728C1.75729 36.0283 1.39873 33.9948 2.4863 32.5939L3.07181 31.8397C3.91218 30.7572 3.91218 29.2428 3.07181 28.1603L2.4863 27.4061C1.39873 26.0052 1.75729 23.9717 3.25842 23.0272L4.06657 22.5187C5.2265 21.789 5.74444 20.3659 5.32498 19.0613L5.03274 18.1523C4.4899 16.4639 5.52235 14.6757 7.25597 14.3016L8.18929 14.1002C9.52886 13.8111 10.5023 12.651 10.5543 11.2816L10.5906 10.3275C10.658 8.55526 12.2398 7.22797 13.9968 7.46938L14.9427 7.59934C16.3003 7.78588 17.6118 7.02869 18.1291 5.75966L18.4895 4.87549C19.159 3.23317 21.0993 2.52694 22.6678 3.35472L23.5122 3.80037C24.7242 4.44 26.2156 4.17703 27.1357 3.16145L27.7768 2.45387Z" fill="url(#paint0_linear_2120_58)"/>
<path d="M39.6483 34.9758L40.4708 30.2158C40.5191 29.9369 40.5058 29.6507 40.4319 29.3774C40.3581 29.104 40.2254 28.8502 40.0431 28.6335C39.8609 28.4168 39.6335 28.2425 39.3769 28.1229C39.1203 28.0032 38.8406 27.9411 38.5575 27.9408H32.513C32.3719 27.9409 32.2325 27.9102 32.1045 27.8509C31.9765 27.7917 31.8629 27.7053 31.7717 27.5977C31.6804 27.4901 31.6137 27.364 31.5761 27.228C31.5385 27.092 31.531 26.9495 31.554 26.8103L32.3275 22.0912C32.453 21.3249 32.4173 20.541 32.2225 19.7893C32.1392 19.4788 31.9787 19.1943 31.7559 18.9624C31.5332 18.7305 31.2554 18.5586 30.9485 18.4628L30.7793 18.408C30.3969 18.2851 29.9818 18.3135 29.6197 18.4873C29.223 18.6787 28.9337 19.0275 28.8263 19.4417L28.271 21.5813C28.0942 22.2622 27.8373 22.9198 27.5057 23.5402C27.0215 24.4467 26.2725 25.1735 25.4932 25.8443L23.8143 27.291C23.5814 27.4923 23.3995 27.7459 23.2835 28.031C23.1675 28.3161 23.1207 28.6246 23.147 28.9313L24.0943 39.8898C24.1361 40.3745 24.358 40.8259 24.7164 41.1548C25.0747 41.4838 25.5434 41.6664 26.0298 41.6667H31.4525C35.5148 41.6667 38.981 38.8363 39.6483 34.9758Z" fill="white"/>
<path fill-rule="evenodd" clip-rule="evenodd" d="M19.4627 27.0658C19.6881 27.0559 19.9087 27.1336 20.0783 27.2825C20.2478 27.4314 20.3533 27.6401 20.3727 27.8649L21.5043 40.9736C21.5235 41.1688 21.5027 41.3659 21.4431 41.5528C21.3836 41.7397 21.2866 41.9125 21.158 42.0606C21.0294 42.2087 20.872 42.3291 20.6954 42.4144C20.5187 42.4996 20.3265 42.548 20.1306 42.5565C19.9346 42.565 19.739 42.5334 19.5556 42.4638C19.3723 42.3941 19.205 42.2878 19.0641 42.1514C18.9232 42.0149 18.8116 41.8512 18.7361 41.6701C18.6606 41.4891 18.6228 41.2946 18.625 41.0984V27.9396C18.6251 27.7141 18.7123 27.4973 18.8683 27.3345C19.0244 27.1717 19.2373 27.0754 19.4627 27.0658Z" fill="white"/>
<defs>
<linearGradient id="paint0_linear_2120_58" x1="-1.58334e-07" y1="60" x2="64.8047" y2="54.2618" gradientUnits="userSpaceOnUse">
<stop stop-color="#970E5F"/>
<stop offset="1" stop-color="#DA2852"/>
</linearGradient>
</defs>
</svg>
