<svg width="120" height="98" viewBox="0 0 120 98" fill="none" xmlns="http://www.w3.org/2000/svg">
<g clip-path="url(#clip0_2102_650)">
<path fill-rule="evenodd" clip-rule="evenodd" d="M42.75 59C42.75 59.4142 42.4142 59.75 42 59.75L37.875 59.75C37.4608 59.75 37.125 59.4142 37.125 59C37.125 58.5858 37.4608 58.25 37.875 58.25L42 58.25C42.4142 58.25 42.75 58.5858 42.75 59ZM30.375 59C30.375 59.4142 30.0392 59.75 29.625 59.75L21.375 59.75C20.9608 59.75 20.625 59.4142 20.625 59C20.625 58.5858 20.9608 58.25 21.375 58.25L29.625 58.25C30.0392 58.25 30.375 58.5858 30.375 59ZM13.875 59C13.875 59.4142 13.5392 59.75 13.125 59.75L9 59.75C7.81496 59.75 6.68314 59.514 5.6504 59.0857C5.26779 58.9271 5.08623 58.4883 5.2449 58.1057C5.40357 57.723 5.84237 57.5415 6.22499 57.7002C7.07878 58.0542 8.01558 58.25 9 58.25L13.125 58.25C13.5392 58.25 13.875 58.5858 13.875 59ZM1.89434 54.7551C1.51171 54.9138 1.07292 54.7322 0.914248 54.3496C0.485991 53.3169 0.249998 52.185 0.249998 51L0.249998 46.8333C0.249998 46.4191 0.585783 46.0833 0.999998 46.0833C1.41421 46.0833 1.75 46.4191 1.75 46.8333L1.75 51C1.75 51.9844 1.94578 52.9212 2.29984 53.775C2.4585 54.1576 2.27695 54.5964 1.89434 54.7551ZM0.999996 0.250002C1.41421 0.250002 1.75 0.585788 1.75 1L1.75 5.16667C1.75 5.58088 1.41421 5.91667 0.999996 5.91667C0.585781 5.91667 0.249996 5.58088 0.249996 5.16667L0.249996 1C0.249996 0.585788 0.585781 0.250002 0.999996 0.250002ZM0.999997 12.75C1.41421 12.75 1.75 13.0858 1.75 13.5L1.75 21.8333C1.75 22.2475 1.41421 22.5833 0.999997 22.5833C0.585782 22.5833 0.249997 22.2475 0.249997 21.8333L0.249997 13.5C0.249997 13.0858 0.585782 12.75 0.999997 12.75ZM0.999997 29.4167C1.41421 29.4167 1.75 29.7525 1.75 30.1667L1.75 38.5C1.75 38.9142 1.41421 39.25 0.999998 39.25C0.585783 39.25 0.249998 38.9142 0.249998 38.5L0.249997 30.1667C0.249997 29.7525 0.585782 29.4167 0.999997 29.4167Z" fill="url(#paint0_linear_2102_650)"/>
<g clip-path="url(#clip1_2102_650)">
<rect x="42" y="20" width="78" height="78" rx="39" fill="white"/>
<path d="M81.5303 31.5303C81.8232 31.2374 81.8232 30.7626 81.5303 30.4697L76.7574 25.6967C76.4645 25.4038 75.9896 25.4038 75.6967 25.6967C75.4038 25.9896 75.4038 26.4645 75.6967 26.7574L79.9393 31L75.6967 35.2426C75.4038 35.5355 75.4038 36.0104 75.6967 36.3033C75.9896 36.5962 76.4645 36.5962 76.7574 36.3033L81.5303 31.5303ZM109.75 59C109.75 58.5858 109.414 58.25 109 58.25C108.586 58.25 108.25 58.5858 108.25 59L109.75 59ZM53.75 59C53.75 43.9502 65.9502 31.75 81 31.75L81 30.25C65.1218 30.25 52.25 43.1218 52.25 59L53.75 59ZM108.25 59C108.25 74.0498 96.0498 86.25 81 86.25L81 87.75C96.8782 87.75 109.75 74.8782 109.75 59L108.25 59ZM81 86.25C65.9502 86.25 53.75 74.0498 53.75 59L52.25 59C52.25 74.8782 65.1218 87.75 81 87.75L81 86.25Z" fill="url(#paint1_linear_2102_650)"/>
<circle cx="80.3997" cy="58.6007" r="23.5" transform="rotate(-120 80.3997 58.6007)" stroke="url(#paint2_angular_2102_650)" stroke-width="29.8884"/>
<g filter="url(#filter0_d_2102_650)">
<circle cx="81.3621" cy="59.3621" r="17.3621" fill="white"/>
</g>
<path d="M88.0056 56.2886L88.5878 59.8561C88.6219 60.0652 88.6125 60.2797 88.5602 60.4846C88.5079 60.6894 88.414 60.8797 88.285 61.0421C88.156 61.2045 87.9951 61.3351 87.8134 61.4248C87.6318 61.5144 87.4338 61.561 87.2334 61.5612H82.9548C82.855 61.5612 82.7563 61.5842 82.6657 61.6286C82.5751 61.673 82.4947 61.7378 82.4301 61.8184C82.3655 61.899 82.3183 61.9936 82.2917 62.0955C82.2651 62.1974 82.2597 62.3042 82.276 62.4085L82.8235 65.9454C82.9126 66.52 82.8873 67.1079 82.7492 67.6715C82.6344 68.1376 82.295 68.5127 81.8474 68.6648L81.7277 68.7059C81.4568 68.7977 81.162 68.7759 80.9068 68.6465C80.7697 68.5776 80.6485 68.4779 80.5515 68.3544C80.4545 68.2309 80.3841 68.0865 80.3453 67.9312L79.9522 66.3276C79.827 65.8172 79.6452 65.3244 79.4104 64.8594C79.0677 64.18 78.5375 63.6353 77.9859 63.1325L76.7975 62.0483C76.6326 61.8975 76.5037 61.7075 76.4216 61.4937C76.3395 61.28 76.3064 61.0487 76.3252 60.8188L76.9957 52.6056C77.0253 52.2424 77.1824 51.9041 77.436 51.6576C77.6897 51.411 78.0214 51.2741 78.3658 51.2739H82.2042C85.0797 51.2739 87.5332 53.3952 88.0056 56.2886Z" fill="#FF3030"/>
<path fill-rule="evenodd" clip-rule="evenodd" d="M73.9036 62.2171C74.0631 62.2245 74.2193 62.1663 74.3393 62.0547C74.4593 61.9431 74.534 61.7867 74.5477 61.6181L75.3487 51.7934C75.3623 51.6471 75.3476 51.4994 75.3054 51.3593C75.2633 51.2193 75.1946 51.0898 75.1036 50.9787C75.0126 50.8677 74.9012 50.7775 74.7761 50.7136C74.6511 50.6497 74.515 50.6135 74.3763 50.6071C74.2376 50.6007 74.0991 50.6244 73.9693 50.6766C73.8396 50.7288 73.7212 50.8084 73.6214 50.9107C73.5217 51.013 73.4427 51.1357 73.3893 51.2714C73.3358 51.4071 73.3091 51.5529 73.3106 51.6999V61.5622C73.3105 61.7314 73.3721 61.8941 73.4826 62.0163C73.5931 62.1385 73.7439 62.2099 73.9036 62.2171Z" fill="#FF3030"/>
</g>
<rect x="42.5" y="20.5" width="77" height="77" rx="38.5" stroke="#EFEFEF"/>
</g>
<defs>
<filter id="filter0_d_2102_650" x="56" y="38" width="50.7241" height="50.7241" filterUnits="userSpaceOnUse" color-interpolation-filters="sRGB">
<feFlood flood-opacity="0" result="BackgroundImageFix"/>
<feColorMatrix in="SourceAlpha" type="matrix" values="0 0 0 0 0 0 0 0 0 0 0 0 0 0 0 0 0 0 127 0" result="hardAlpha"/>
<feOffset dy="4"/>
<feGaussianBlur stdDeviation="4"/>
<feComposite in2="hardAlpha" operator="out"/>
<feColorMatrix type="matrix" values="0 0 0 0 0 0 0 0 0 0 0 0 0 0 0 0 0 0 0.12 0"/>
<feBlend mode="normal" in2="BackgroundImageFix" result="effect1_dropShadow_2102_650"/>
<feBlend mode="normal" in="SourceGraphic" in2="effect1_dropShadow_2102_650" result="shape"/>
</filter>
<linearGradient id="paint0_linear_2102_650" x1="0.249997" y1="0.250002" x2="8.15754" y2="64.0383" gradientUnits="userSpaceOnUse">
<stop stop-color="#970E5F"/>
<stop offset="1" stop-color="#DA2852"/>
</linearGradient>
<linearGradient id="paint1_linear_2102_650" x1="109" y1="31" x2="48.5156" y2="36.3557" gradientUnits="userSpaceOnUse">
<stop stop-color="#970E5F"/>
<stop offset="1" stop-color="#DA2852"/>
</linearGradient>
<radialGradient id="paint2_angular_2102_650" cx="0" cy="0" r="1" gradientUnits="userSpaceOnUse" gradientTransform="translate(80.3997 58.6007) rotate(111.595) scale(37.4459)">
<stop stop-color="white"/>
<stop offset="1" stop-color="white" stop-opacity="0"/>
</radialGradient>
<clipPath id="clip0_2102_650">
<rect width="120" height="98" fill="white"/>
</clipPath>
<clipPath id="clip1_2102_650">
<rect x="42" y="20" width="78" height="78" rx="39" fill="white"/>
</clipPath>
</defs>
</svg>
