<svg width="332" height="64" viewBox="0 0 332 64" fill="none" xmlns="http://www.w3.org/2000/svg">
<g clip-path="url(#clip0_2105_663)">
<path d="M53.9304 9.68485C54.9029 9.68485 55.6914 10.4736 55.6914 11.4466C55.6914 12.4196 54.9029 13.2084 53.9304 13.2084H40.5871C40.1055 13.2084 39.6645 13.4082 39.3451 13.7276C39.0258 14.0471 38.8261 14.4883 38.8261 14.9701V27.1422H51.8001C53.2543 27.1422 54.5763 27.7374 55.5322 28.6937C56.4882 29.6501 57.0831 30.9748 57.0831 32.4275V36.3662H65.2318C65.6541 36.3662 66.0411 36.515 66.3437 36.7627L71.167 40.1082L70.7364 38.6097C70.4711 37.6753 71.0131 36.7002 71.9471 36.4349C72.1073 36.3891 72.2696 36.3672 72.4287 36.3672L77.5235 36.3662C78.0082 36.3662 78.4471 36.1705 78.7602 35.8563C79.0764 35.5389 79.2751 35.0935 79.2751 34.6044V25.8643C79.2751 24.8913 80.0636 24.1025 81.0361 24.1025C82.0087 24.1025 82.7971 24.8913 82.7971 25.8643V34.6044C82.7971 36.054 82.2042 37.3756 81.2504 38.3329C80.2934 39.2934 78.9735 39.8897 77.5235 39.8897H74.7649L75.9122 43.8825C76.0464 44.3706 75.9747 44.9138 75.6647 45.3623C75.1144 46.1604 74.0202 46.3602 73.2224 45.8097L64.6899 39.8897H57.0831V52.0618C57.0831 53.5103 56.4881 54.8329 55.5333 55.7892C54.5701 56.7518 53.2501 57.347 51.8001 57.347H27.6973L19.1648 63.2671C18.367 63.8176 17.2728 63.6178 16.7225 62.8196C16.4126 62.3711 16.3408 61.8279 16.4791 61.3409L17.6223 57.347H14.8637C13.4138 57.347 12.0938 56.7508 11.1368 55.7903C10.183 54.8329 9.5901 53.5113 9.5901 52.0618V43.3216C9.5901 42.3487 10.3785 41.5599 11.3511 41.5599C12.3237 41.5599 13.1121 42.3487 13.1121 43.3216V52.0618C13.1121 52.5508 13.3108 52.9962 13.627 53.3136C13.9401 53.6279 14.378 53.8235 14.8637 53.8235H19.9585C20.1176 53.8246 20.2799 53.8464 20.4401 53.8922C21.3742 54.1575 21.9161 55.1326 21.6508 56.0671L21.2202 57.5656L26.0435 54.22C26.3462 53.9723 26.7331 53.8235 27.1554 53.8235H51.8001C52.2859 53.8235 52.7279 53.6248 53.0462 53.3084C53.3624 52.99 53.5611 52.5477 53.5611 52.0618V32.4275C53.5611 31.9457 53.3614 31.5044 53.0421 31.185C52.7227 30.8655 52.2817 30.6657 51.8001 30.6657H27.1044C26.1319 30.6657 25.3434 29.8769 25.3434 28.9039C25.3434 27.931 26.1319 27.1422 27.1044 27.1422H35.3041V14.9701C35.3041 13.5153 35.8991 12.1927 36.855 11.2364C37.8109 10.2801 39.135 9.68485 40.5871 9.68485H53.9304ZM13.6956 16.1616L16.4916 21.7674L22.7576 22.7466C23.7145 22.8944 24.3709 23.7924 24.2232 24.7498C24.1628 25.138 23.9798 25.4772 23.7197 25.7332L19.2574 30.1246L20.2633 36.3984C20.4151 37.3558 19.7619 38.257 18.8049 38.4089C18.419 38.4703 18.0425 38.4006 17.7201 38.232L12.1604 35.3422L6.51328 38.2362C5.65202 38.6763 4.59417 38.334 4.15418 37.4724C3.97631 37.1248 3.92638 36.7439 3.98671 36.386L5.0144 30.2068L0.517751 25.7269C-0.1698 25.0433 -0.172921 23.9308 0.51047 23.243C0.789235 22.9631 1.13873 22.7966 1.50071 22.7435L7.68555 21.8153L10.5533 16.1543C10.9902 15.2886 12.048 14.9399 12.9134 15.377C13.265 15.5549 13.5313 15.8349 13.6956 16.1616ZM13.7456 24.1452L12.1083 20.861L10.4399 24.1546C10.1996 24.678 9.70764 25.0734 9.09602 25.1629L5.47103 25.7051L8.07353 28.2973C8.50416 28.6865 8.733 29.2796 8.63106 29.8936L8.02464 33.5201L11.2471 31.8697C11.7568 31.5544 12.4152 31.5065 12.9852 31.8031L16.242 33.4993L15.6491 29.8051C15.5555 29.2567 15.7229 28.6729 16.1484 28.2536L18.7685 25.676L15.1768 25.1151C14.5839 25.0651 14.0295 24.7165 13.7456 24.1452ZM64.3393 7.34867L68.1911 0.863567C68.6841 0.0279542 69.7638 -0.248849 70.5991 0.244402C70.7291 0.321408 70.8456 0.411941 70.9475 0.514962L73.8538 3.41827C74.1096 3.67426 74.2698 3.98957 74.3354 4.32049L75.1789 7.34867H79.273C79.789 7.34867 80.2851 7.45689 80.7459 7.66918C81.2015 7.87938 81.6051 8.18324 81.9421 8.57451C82.276 8.96266 82.5152 9.40909 82.6557 9.89401C82.7971 10.3831 82.8304 10.8909 82.7545 11.3967L81.4688 19.8974C81.3398 20.757 80.9051 21.5052 80.2862 22.039C79.661 22.5781 78.858 22.8965 77.9874 22.8965H60.2879C59.3153 22.8965 58.5269 22.1077 58.5269 21.1347V9.11043C58.5269 8.13746 59.3153 7.34867 60.2879 7.34867H64.3393ZM67.0989 19.373H77.9874L79.2741 10.8743L73.8465 10.8722C73.0768 10.867 72.3694 10.3571 72.1541 9.57871L71.0432 5.58899L70.0592 4.60457L67.0989 9.58807V19.373ZM63.5769 10.8722H62.0489V19.373H63.5769V10.8722Z" fill="url(#paint0_linear_2105_663)"/>
<path fill-rule="evenodd" clip-rule="evenodd" d="M219.479 47.9383C224.035 47.9383 227.903 46.3644 231.081 43.2166C234.258 40.0386 235.847 36.1563 235.847 31.5695C235.847 26.9826 234.258 23.1153 231.081 19.9674C227.903 16.7896 224.035 15.2007 219.479 15.2007C214.922 15.2007 211.054 16.7896 207.876 19.9674C204.729 23.1153 203.155 26.9826 203.155 31.5695C203.155 36.1264 204.729 40.0089 207.876 43.2166C211.054 46.3644 214.922 47.9383 219.479 47.9383ZM219.479 41.8675C216.571 41.8675 214.157 40.9082 212.238 38.9894C210.29 37.0408 209.315 34.5675 209.315 31.5695C209.315 28.5716 210.29 26.0982 212.238 24.1496C214.187 22.2009 216.6 21.2266 219.479 21.2266C222.357 21.2266 224.77 22.2009 226.719 24.1496C228.667 26.0982 229.642 28.5716 229.642 31.5695C229.642 34.5675 228.667 37.0408 226.719 38.9894C224.8 40.9082 222.387 41.8675 219.479 41.8675Z" fill="white"/>
<path d="M276.778 41.1932C276.778 38.7349 275.639 36.9511 273.36 35.8419C275.009 34.7326 275.833 33.0838 275.833 30.8953C275.833 29.0665 275.069 27.4926 273.54 26.1735C272.041 24.8544 270.002 24.1948 267.424 24.1948C263.287 24.1948 260.364 25.9187 258.655 29.3663L263.332 32.0645C264.201 30.1758 265.595 29.2314 267.514 29.2314C268.354 29.2314 269.028 29.4263 269.538 29.816C270.047 30.2057 270.302 30.7304 270.302 31.3899C270.302 32.769 269.433 33.4585 267.694 33.4585H265.266V38.4051H268.458C270.227 38.4051 271.112 39.0947 271.112 40.4738C271.112 41.1932 270.812 41.7629 270.212 42.1825C269.643 42.6023 268.818 42.8122 267.739 42.8122C265.371 42.8122 263.827 41.7929 263.107 39.7542L258.385 42.5423C260.034 46.1399 263.137 47.9385 267.694 47.9385C270.512 47.9385 272.731 47.3091 274.35 46.0499C275.968 44.7908 276.778 43.1718 276.778 41.1932Z" fill="white"/>
<path fill-rule="evenodd" clip-rule="evenodd" d="M286.23 32.0193H290.592C293.141 32.0193 295.194 32.7238 296.753 34.1329C298.312 35.5119 299.091 37.3556 299.091 39.664C299.091 41.9724 298.312 43.8313 296.753 45.2403C295.194 46.6194 293.141 47.3089 290.592 47.3089H280.429V24.8242H286.23V32.0193ZM286.23 42.1823H290.637C291.447 42.1823 292.106 41.9575 292.616 41.5078C293.156 41.0282 293.425 40.4136 293.425 39.664C293.425 38.9146 293.156 38.3 292.616 37.8203C292.106 37.3407 291.447 37.1009 290.637 37.1009H286.23V42.1823Z" fill="white"/>
<path d="M301.565 47.3089V24.8242H307.366V47.3089H301.565Z" fill="white"/>
<path fill-rule="evenodd" clip-rule="evenodd" d="M328.852 35.7966C330.95 36.8161 332 38.5248 332 40.9232C332 42.842 331.34 44.3859 330.021 45.5551C328.702 46.7243 326.858 47.3089 324.49 47.3089H312.663V24.8242H323.591C325.929 24.8242 327.758 25.4088 329.077 26.578C330.396 27.7172 331.055 29.2462 331.055 31.1649C331.055 33.1435 330.321 34.6875 328.852 35.7966ZM323.051 29.591H318.104V33.6382H323.051C324.7 33.6382 325.524 32.9637 325.524 31.6146C325.524 30.2655 324.7 29.591 323.051 29.591ZM318.104 42.4073H323.815C325.494 42.4073 326.334 41.6877 326.334 40.2486C326.334 39.6192 326.109 39.1245 325.659 38.7647C325.21 38.4049 324.595 38.225 323.815 38.225H318.104V42.4073Z" fill="white"/>
<path d="M237.736 24.8242H257.657V30.4004H250.642V47.3089H244.841V30.4004H237.736V24.8242Z" fill="white"/>
<path fill-rule="evenodd" clip-rule="evenodd" d="M195.01 44.9599C192.732 47.2384 189.913 48.3776 186.556 48.3776C183.198 48.3776 180.38 47.2384 178.102 44.9599C175.823 42.6815 174.684 39.8634 174.684 36.5057C174.684 33.178 175.823 30.3749 178.102 28.0964C180.41 25.788 183.228 24.6338 186.556 24.6338C189.883 24.6338 192.702 25.788 195.01 28.0964C197.318 30.4049 198.473 33.2079 198.473 36.5057C198.473 39.8334 197.318 42.6515 195.01 44.9599ZM182.194 40.9577C183.363 42.1269 184.817 42.7115 186.556 42.7115C188.295 42.7115 189.749 42.1269 190.918 40.9577C192.087 39.7885 192.672 38.3045 192.672 36.5057C192.672 34.7069 192.087 33.2229 190.918 32.0537C189.749 30.8845 188.295 30.2999 186.556 30.2999C184.817 30.2999 183.363 30.8845 182.194 32.0537C181.054 33.2529 180.485 34.7369 180.485 36.5057C180.485 38.2745 181.054 39.7585 182.194 40.9577Z" fill="white"/>
<path d="M173.633 25.2632H153.712V30.8394H160.817V47.7478H166.618V30.8394H173.633V25.2632Z" fill="white"/>
<path fill-rule="evenodd" clip-rule="evenodd" d="M149.708 36.2357C151.806 37.255 152.855 38.9638 152.855 41.3622C152.855 43.2809 152.196 44.8248 150.877 45.994C149.558 47.1632 147.714 47.7478 145.346 47.7478H133.519V25.2632H144.446C146.785 25.2632 148.613 25.8478 149.932 27.017C151.252 28.1562 151.911 29.6852 151.911 31.6039C151.911 33.5825 151.177 35.1265 149.708 36.2357ZM143.907 30.0299H138.96V34.0772H143.907C145.555 34.0772 146.38 33.4026 146.38 32.0536C146.38 30.7045 145.555 30.0299 143.907 30.0299ZM138.96 42.8462H144.671C146.35 42.8462 147.189 42.1267 147.189 40.6877C147.189 40.0581 146.965 39.5634 146.515 39.2037C146.065 38.8439 145.451 38.664 144.671 38.664H138.96V42.8462Z" fill="white"/>
<path fill-rule="evenodd" clip-rule="evenodd" d="M123.987 47.7476H130.732L119.67 16.269H111.98L100.962 47.7476H107.663L109.551 42.0814H122.098L123.987 47.7476ZM111.53 36.2804L115.847 23.4192L120.164 36.2804H111.53Z" fill="white"/>
</g>
<defs>
<linearGradient id="paint0_linear_2105_663" x1="-2.18493e-07" y1="63.578" x2="88.9458" y2="53.3213" gradientUnits="userSpaceOnUse">
<stop stop-color="#C2137B"/>
<stop offset="1" stop-color="#E41747"/>
</linearGradient>
<clipPath id="clip0_2105_663">
<rect width="332" height="63.578" fill="white"/>
</clipPath>
</defs>
</svg>
