<svg width="60" height="60" viewBox="0 0 60 60" fill="none" xmlns="http://www.w3.org/2000/svg">
<path d="M27.7768 57.5461C28.9676 58.8604 31.0324 58.8604 32.2232 57.5461L32.8643 56.8385C33.7844 55.823 35.2758 55.56 36.4878 56.1996L37.3322 56.6453C38.9007 57.4731 40.841 56.7668 41.5105 55.1245L41.8709 54.2403C42.3882 52.9713 43.6997 52.2141 45.0573 52.4007L46.0032 52.5306C47.7602 52.772 49.342 51.4447 49.4094 49.6725L49.4457 48.7184C49.4977 47.349 50.4711 46.1889 51.8107 45.8998L52.744 45.6984C54.4777 45.3243 55.5101 43.5361 54.9673 41.8477L54.675 40.9387C54.2556 39.6341 54.7735 38.211 55.9334 37.4813L56.7416 36.9728C58.2427 36.0283 58.6013 33.9948 57.5137 32.5939L56.9282 31.8397C56.0878 30.7572 56.0878 29.2428 56.9282 28.1603L57.5137 27.4061C58.6013 26.0052 58.2427 23.9717 56.7416 23.0272L55.9334 22.5187C54.7735 21.789 54.2556 20.3659 54.675 19.0613L54.9673 18.1523C55.5101 16.4639 54.4777 14.6757 52.744 14.3016L51.8107 14.1002C50.4711 13.8111 49.4977 12.651 49.4457 11.2816L49.4094 10.3275C49.342 8.55526 47.7602 7.22797 46.0032 7.46938L45.0573 7.59934C43.6996 7.78588 42.3882 7.02869 41.8709 5.75966L41.5105 4.87549C40.841 3.23317 38.9007 2.52694 37.3322 3.35472L36.4878 3.80037C35.2758 4.44 33.7844 4.17703 32.8643 3.16145L32.2232 2.45387C31.0324 1.13956 28.9676 1.13956 27.7768 2.45387L27.1357 3.16145C26.2156 4.17703 24.7242 4.44 23.5122 3.80037L22.6678 3.35472C21.0993 2.52693 19.159 3.23317 18.4895 4.87549L18.1291 5.75966C17.6118 7.02869 16.3004 7.78588 14.9427 7.59934L13.9968 7.46938C12.2398 7.22797 10.658 8.55526 10.5906 10.3275L10.5543 11.2816C10.5023 12.651 9.52886 13.8111 8.18929 14.1002L7.25596 14.3016C5.52234 14.6757 4.4899 16.4639 5.03274 18.1523L5.32499 19.0613C5.74444 20.3659 5.2265 21.789 4.06657 22.5188L3.25842 23.0272C1.75729 23.9717 1.39873 26.0052 2.4863 27.4061L3.07181 28.1603C3.91218 29.2428 3.91218 30.7572 3.07181 31.8397L2.4863 32.5939C1.39873 33.9948 1.75729 36.0283 3.25842 36.9728L4.06657 37.4813C5.2265 38.211 5.74444 39.6341 5.32498 40.9387L5.03274 41.8477C4.4899 43.5361 5.52235 45.3243 7.25597 45.6984L8.18929 45.8998C9.52886 46.1889 10.5023 47.349 10.5543 48.7184L10.5906 49.6725C10.658 51.4447 12.2398 52.772 13.9968 52.5306L14.9427 52.4007C16.3003 52.2141 17.6118 52.9713 18.1291 54.2403L18.4895 55.1245C19.159 56.7668 21.0993 57.4731 22.6678 56.6453L23.5122 56.1996C24.7242 55.56 26.2156 55.823 27.1357 56.8385L27.7768 57.5461Z" fill="#F8F8F8"/>
<path d="M39.6483 25.0242L40.4708 29.7842C40.5191 30.0631 40.5058 30.3493 40.4319 30.6226C40.3581 30.896 40.2254 31.1498 40.0431 31.3665C39.8609 31.5832 39.6335 31.7575 39.3769 31.8771C39.1203 31.9968 38.8406 32.0589 38.5575 32.0592H32.513C32.3719 32.0591 32.2325 32.0898 32.1045 32.1491C31.9765 32.2083 31.8629 32.2947 31.7717 32.4023C31.6804 32.5099 31.6137 32.636 31.5761 32.772C31.5385 32.908 31.531 33.0505 31.554 33.1897L32.3275 37.9088C32.453 38.6751 32.4173 39.459 32.2225 40.2107C32.1392 40.5212 31.9787 40.8057 31.7559 41.0376C31.5332 41.2695 31.2554 41.4414 30.9485 41.5372L30.7793 41.592C30.3969 41.7149 29.9818 41.6865 29.6197 41.5127C29.223 41.3213 28.9337 40.9725 28.8263 40.5583L28.271 38.4187C28.0942 37.7378 27.8373 37.0802 27.5057 36.4598C27.0215 35.5533 26.2725 34.8265 25.4932 34.1557L23.8143 32.709C23.5814 32.5077 23.3995 32.2541 23.2835 31.969C23.1675 31.6839 23.1207 31.3754 23.147 31.0687L24.0943 20.1102C24.1361 19.6255 24.358 19.1741 24.7164 18.8452C25.0747 18.5162 25.5434 18.3336 26.0298 18.3333H31.4525C35.5148 18.3333 38.981 21.1637 39.6483 25.0242Z" fill="#7B7B7B"/>
<path fill-rule="evenodd" clip-rule="evenodd" d="M19.4627 32.9342C19.6881 32.9441 19.9087 32.8664 20.0783 32.7175C20.2478 32.5686 20.3533 32.3599 20.3727 32.1351L21.5043 19.0264C21.5235 18.8312 21.5027 18.6341 21.4431 18.4472C21.3836 18.2603 21.2866 18.0875 21.158 17.9394C21.0294 17.7913 20.872 17.6709 20.6954 17.5856C20.5187 17.5004 20.3265 17.452 20.1306 17.4435C19.9346 17.435 19.739 17.4666 19.5556 17.5362C19.3723 17.6059 19.205 17.7122 19.0641 17.8486C18.9232 17.9851 18.8116 18.1488 18.7361 18.3299C18.6606 18.5109 18.6228 18.7054 18.625 18.9016V32.0604C18.6251 32.2859 18.7123 32.5027 18.8683 32.6655C19.0244 32.8283 19.2373 32.9246 19.4627 32.9342Z" fill="#7B7B7B"/>
</svg>
