<svg xmlns="http://www.w3.org/2000/svg" xmlns:xlink="http://www.w3.org/1999/xlink"><defs><clipPath id="clip0_397_6904"><path fill="#fff" d="M0 0h169v40H0z"/></clipPath><clipPath id="clip1_397_6904"><path fill="#fff" d="M0 0h35v40H0z"/></clipPath></defs><symbol id="icon__arrow--down" viewBox="0 0 24 24"><g fill="none"><path d="M6 9l6 6 6-6" stroke="#000" stroke-width="2" stroke-linecap="round" stroke-linejoin="round"/></g></symbol><symbol id="icon__cross" viewBox="0 0 34 34"><g fill="none"><path d="M25.925 8.09a1.411 1.411 0 00-1.998 0L17 15.001l-6.928-6.927a1.412 1.412 0 10-1.997 1.998L15.003 17l-6.928 6.927a1.411 1.411 0 101.998 1.998L17 18.997l6.927 6.928a1.413 1.413 0 001.998-1.998L18.997 17l6.928-6.928a1.42 1.42 0 000-1.983z" fill="#7B7B7B"/></g></symbol><symbol id="icon__socials--tg" viewBox="0 0 34 34"><g fill="none"><rect width="34" height="34" rx="17" fill="#2AABEE"/><path d="M7.695 16.82c4.957-2.158 8.261-3.582 9.913-4.27 4.723-1.963 5.703-2.305 6.343-2.316.141-.002.455.033.66.198.17.14.217.328.24.46.022.133.051.434.027.67-.255 2.688-1.362 9.21-1.925 12.222-.237 1.274-.707 1.7-1.161 1.742-.988.091-1.737-.652-2.694-1.279-1.495-.98-2.34-1.59-3.793-2.548-1.678-1.106-.59-1.714.367-2.708.25-.26 4.6-4.216 4.683-4.575.01-.045.021-.212-.08-.3-.098-.089-.244-.059-.35-.035-.152.034-2.54 1.614-7.172 4.74-.678.466-1.291.693-1.844.681-.605-.013-1.774-.343-2.643-.625-1.062-.346-1.91-.53-1.835-1.117.037-.306.46-.62 1.264-.94z" fill="#fff"/></g></symbol><symbol id="icon__socials--wa" viewBox="0 0 34 34"><g fill="none"><rect width="34" height="34" rx="17" fill="#60D669"/><path d="M13.933 12.235c.18.008.381.016.571.436.13.286.348.818.522 1.244.129.315.233.571.26.625.064.126.106.273.022.44l-.036.073a1.44 1.44 0 01-.218.348l-.13.155c-.088.106-.175.21-.25.286-.128.125-.26.262-.112.514.148.252.657 1.076 1.412 1.744a6.554 6.554 0 001.872 1.174c.07.03.127.055.169.075.253.126.402.105.55-.063.148-.168.634-.735.803-.987.17-.252.338-.21.571-.126.233.084 1.48.693 1.734.82l.139.066c.177.085.297.142.348.227.063.105.063.61-.148 1.197-.212.588-1.248 1.155-1.713 1.197l-.135.015c-.43.05-.973.114-2.91-.645-2.385-.932-3.956-3.244-4.282-3.722a2.608 2.608 0 00-.054-.079l-.003-.003c-.136-.181-1.033-1.37-1.033-2.601 0-1.16.574-1.768.838-2.048l.05-.053a.936.936 0 01.677-.315h.033c.158 0 .315 0 .453.006z" fill="#fff"/><path fill-rule="evenodd" clip-rule="evenodd" d="M8.241 21.92a9.997 9.997 0 01-1.356-5.038c.003-5.555 4.559-10.074 10.158-10.074a10.134 10.134 0 017.185 2.954A9.975 9.975 0 0127.2 16.89c-.002 5.555-4.56 10.076-10.157 10.076h-.005c-1.7 0-3.37-.424-4.853-1.227L6.8 27.14l1.441-5.22zm1.65-.58l.201.316-.853 3.09 3.195-.83.309.18a8.482 8.482 0 004.296 1.168h.004c4.653 0 8.44-3.757 8.442-8.374a8.29 8.29 0 00-2.47-5.925 8.421 8.421 0 00-5.97-2.456c-4.656 0-8.443 3.757-8.445 8.374 0 1.582.446 3.123 1.29 4.457z" fill="#fff"/></g></symbol><symbol id="icon__wheel" viewBox="0 0 30 30"><g fill="none"><path d="M24.575 12.05l-.45-1.175L26.45 10c-1.15-2.65-3.2-4.775-5.775-6.075l-1 2.225-1.15-.525 1-2.25C18.125 2.825 16.6 2.5 15 2.5c-1.325 0-2.6.275-3.8.625l.85 2.3-1.175.45L10 3.55C7.35 4.7 5.225 6.75 3.925 9.325l2.225 1-.525 1.15-2.25-1C2.825 11.875 2.5 13.4 2.5 15c0 1.325.275 2.6.625 3.8l2.3-.85.45 1.175L3.55 20c1.15 2.65 3.2 4.775 5.775 6.075l1-2.225 1.15.525-1 2.25c1.4.55 2.925.875 4.525.875 1.325 0 2.6-.275 3.8-.625l-.85-2.3 1.175-.45L20 26.45c2.65-1.15 4.775-3.2 6.075-5.775l-2.225-1 .525-1.15 2.25 1c.55-1.4.875-2.925.875-4.525 0-1.325-.275-2.6-.625-3.8l-2.3.85zm-6.7 9.875c-3.825 1.575-8.225-.225-9.8-4.05-1.575-3.825.225-8.225 4.05-9.8 3.825-1.575 8.225.225 9.8 4.05a7.483 7.483 0 01-4.05 9.8z" fill="#fff"/></g></symbol><symbol id="logo__evoteka" viewBox="0 0 169 40"><g fill="none"><g clip-path="url(#clip0_397_6904)"><path d="M58.88 17.79c.6 0 1.11-.09 1.53-.27.44-.2.8-.52 1.08-.96h4.44c-.22.82-.56 1.53-1.02 2.13-.44.6-.98 1.09-1.62 1.47-.62.38-1.31.66-2.07.84-.76.16-1.56.24-2.4.24-2.56 0-4.5-.72-5.82-2.16-1.3-1.44-1.95-3.46-1.95-6.06 0-1.18.17-2.27.51-3.27.36-1 .86-1.86 1.5-2.58.64-.74 1.43-1.31 2.37-1.71.96-.4 2.05-.6 3.27-.6 1.42 0 2.65.25 3.69.75s1.86 1.19 2.46 2.07c.62.86 1.03 1.87 1.23 3.03.22 1.16.22 2.4 0 3.72h-10.8c.08.94.41 1.74.99 2.4.58.64 1.45.96 2.61.96zm3.27-6.27c0-.5-.09-.94-.27-1.32-.18-.4-.42-.72-.72-.96-.3-.26-.66-.45-1.08-.57-.4-.12-.82-.18-1.26-.18-1.06.02-1.89.31-2.49.87-.58.54-.92 1.26-1.02 2.16h6.84zm17.435-6.33h4.65L78.415 21h-5.31l-5.79-15.81h4.68l3.81 11.73 3.78-11.73zm13.693 16.05c-2.56 0-4.53-.72-5.91-2.16-1.38-1.46-2.07-3.48-2.07-6.06 0-1.24.18-2.36.54-3.36.38-1.02.9-1.89 1.56-2.61.68-.72 1.51-1.26 2.49-1.62 1-.38 2.13-.57 3.39-.57 1.24 0 2.35.19 3.33.57 1 .36 1.84.9 2.52 1.62.7.72 1.23 1.59 1.59 2.61.38 1 .57 2.12.57 3.36 0 2.6-.7 4.62-2.1 6.06-1.38 1.44-3.35 2.16-5.91 2.16zm0-12.6c-1.3 0-2.26.42-2.88 1.26-.62.84-.93 1.89-.93 3.15 0 1.28.31 2.34.93 3.18.62.84 1.58 1.26 2.88 1.26 1.3 0 2.25-.42 2.85-1.26.6-.84.9-1.9.9-3.18 0-1.26-.3-2.31-.9-3.15-.6-.84-1.55-1.26-2.85-1.26zm18.496 8.82c.32 0 .68-.06 1.08-.18s.75-.27 1.05-.45l1.2 3.21c-.28.18-.6.35-.96.51-.34.14-.72.27-1.14.39-.4.1-.78.17-1.14.21-.36.04-.69.06-.99.06-.96 0-1.81-.13-2.55-.39-.72-.26-1.32-.65-1.8-1.17-.44-.44-.77-1.01-.99-1.71-.2-.7-.3-1.49-.3-2.37V8.88h-2.4V5.19h2.4V.87h4.23v4.32h4.65v3.69h-4.65v5.7c0 .36.02.71.06 1.05.06.32.17.62.33.9.18.28.42.51.72.69.32.16.72.24 1.2.24zm12.292.33c.6 0 1.11-.09 1.53-.27.44-.2.8-.52 1.08-.96h4.44c-.22.82-.56 1.53-1.02 2.13-.44.6-.98 1.09-1.62 1.47-.62.38-1.31.66-2.07.84-.76.16-1.56.24-2.4.24-2.56 0-4.5-.72-5.82-2.16-1.3-1.44-1.95-3.46-1.95-6.06 0-1.18.17-2.27.51-3.27.36-1 .86-1.86 1.5-2.58.64-.74 1.43-1.31 2.37-1.71.96-.4 2.05-.6 3.27-.6 1.42 0 2.65.25 3.69.75s1.86 1.19 2.46 2.07c.62.86 1.03 1.87 1.23 3.03.22 1.16.22 2.4 0 3.72h-10.8c.08.94.41 1.74.99 2.4.58.64 1.45.96 2.61.96zm3.27-6.27c0-.5-.09-.94-.27-1.32-.18-.4-.42-.72-.72-.96-.3-.26-.66-.45-1.08-.57-.4-.12-.82-.18-1.26-.18-1.06.02-1.89.31-2.49.87-.58.54-.92 1.26-1.02 2.16h6.84zm11.074 3.45V21h-4.23V-.24h4.23v11.55h2.1l3.42-6.12h4.83l-4.68 7.5 5.04 8.31h-4.92l-3.54-6.03h-2.25zm23.931 4.56c-.68.66-1.42 1.11-2.22 1.35-.8.24-1.63.36-2.49.36-1.12 0-2.14-.17-3.06-.51-.9-.34-1.67-.84-2.31-1.5-.76-.78-1.3-1.7-1.62-2.76-.32-1.06-.48-2.14-.48-3.24 0-2.58.68-4.6 2.04-6.06.7-.78 1.55-1.36 2.55-1.74 1-.38 2.05-.57 3.15-.57 1.2 0 2.17.17 2.91.51.76.34 1.33.74 1.71 1.2l.24-1.38h3.84V21h-4.05l-.21-1.47zm-3.93-2.04c.62 0 1.17-.11 1.65-.33.5-.24.91-.56 1.23-.96.34-.4.59-.86.75-1.38.18-.52.27-1.09.27-1.71 0-1.32-.35-2.39-1.05-3.21-.68-.82-1.64-1.24-2.88-1.26-.66 0-1.25.11-1.77.33-.5.22-.92.54-1.26.96-.32.4-.56.87-.72 1.41-.16.52-.24 1.09-.24 1.71 0 .66.08 1.26.24 1.8.18.52.44.98.78 1.38.34.4.76.71 1.26.93.5.22 1.08.33 1.74.33z" fill="#060708"/><path d="M57.33 27.73v4.72h.72v2.23h-.63V33h-4.25v1.68h-.62v-2.22a.591.591 0 00.31-.1c.093-.067.173-.143.24-.23a1.38 1.38 0 00.18-.3 4.25 4.25 0 00.12-.31c.093-.3.156-.623.19-.97.033-.353.053-.67.06-.95l.02-.94c.006-.313.006-.623 0-.93h3.66zm-.66.55H54.3c0 .113-.004.233-.01.36l-.01.78c0 .12-.004.24-.01.36a14.2 14.2 0 01-.05.91c-.02.3-.074.597-.16.89a2.084 2.084 0 01-.46.87h3.07v-4.17zM60.855 33h-.92v-5.27h.66v4.54l2.89-4.54h.91V33h-.66v-4.5l-2.88 4.5zm10.208-5.27v4.72h.72v2.23h-.63V33h-4.25v1.68h-.62v-2.22a.591.591 0 00.31-.1c.094-.067.174-.143.24-.23a1.38 1.38 0 00.18-.3c.047-.107.087-.21.12-.31.094-.3.157-.623.19-.97.034-.353.054-.67.06-.95l.02-.94c.007-.313.007-.623 0-.93h3.66zm-.66.55h-2.37c0 .113-.003.233-.01.36l-.01.78c0 .12-.003.24-.01.36a14.2 14.2 0 01-.05.91c-.02.3-.073.597-.16.89a2.084 2.084 0 01-.46.87h3.07v-4.17zM76.368 33v-2.37h-1.03L73.888 33h-.75l1.7-2.77-1.55-2.5h.73l1.42 2.35h.93v-2.35h.66v2.35h.93l1.42-2.35h.73l-1.55 2.5 1.71 2.77h-.75l-1.46-2.37h-1.03V33h-.66zm6.63 0h-.92v-5.27h.66v4.54l2.89-4.54h.91V33h-.66v-4.5l-2.88 4.5zm9.719-5.27v.55h-1.89V33h-.66v-4.72h-1.89v-.55h4.44zm5.767 0h.66V33h-.66v-.82a1.262 1.262 0 01-.24.28c-.08.073-.166.143-.26.21-.2.14-.423.24-.67.3-.24.06-.493.09-.76.09-.413 0-.77-.077-1.07-.23a2.027 2.027 0 01-.72-.62c-.18-.26-.313-.56-.4-.9a4.125 4.125 0 01-.1-1.08c.007-.367.064-.703.17-1.01.114-.313.27-.583.47-.81.2-.233.447-.413.74-.54.294-.133.63-.2 1.01-.2.214 0 .414.02.6.06.194.033.377.097.55.19.127.067.247.147.36.24.12.093.227.21.32.35v-.78zm-1.8.5c-.313 0-.58.06-.8.18-.22.113-.403.27-.55.47-.14.193-.243.417-.31.67-.066.253-.1.52-.1.8 0 .293.03.57.09.83.067.26.17.487.31.68.14.193.32.35.54.47.227.113.504.17.83.17.294 0 .557-.063.79-.19.24-.127.437-.29.59-.49.154-.2.264-.42.33-.66.067-.247.1-.517.1-.81 0-.327-.053-.65-.16-.97a1.548 1.548 0 00-.56-.8 1.791 1.791 0 00-1.1-.35zm9.043-.5V33h-.66v-4.72h-2.28l-.02.57-.05 1.11-.02.57c-.013.173-.03.357-.05.55-.013.193-.04.387-.08.58-.04.187-.096.367-.17.54a1.39 1.39 0 01-.3.45 1.22 1.22 0 01-.5.32 2.27 2.27 0 01-.59.07v-.62a.86.86 0 00.49-.17 1.04 1.04 0 00.31-.42c.087-.213.144-.447.17-.7.034-.26.057-.48.07-.66.034-.46.054-.917.06-1.37l.04-1.37h3.58zm9.969 0h.66V33h-.66v-.82a1.241 1.241 0 01-.24.28 2.8 2.8 0 01-.26.21c-.2.14-.423.24-.67.3-.24.06-.493.09-.76.09-.413 0-.77-.077-1.07-.23a2.034 2.034 0 01-.72-.62c-.18-.26-.313-.56-.4-.9a4.142 4.142 0 01-.1-1.08c.007-.367.063-.703.17-1.01a2.49 2.49 0 01.47-.81c.2-.233.447-.413.74-.54.293-.133.63-.2 1.01-.2.213 0 .413.02.6.06.193.033.377.097.55.19.127.067.247.147.36.24.12.093.227.21.32.35v-.78zm-1.8.5c-.313 0-.58.06-.8.18a1.56 1.56 0 00-.55.47c-.14.193-.243.417-.31.67-.067.253-.1.52-.1.8 0 .293.03.57.09.83.067.26.17.487.31.68.14.193.32.35.54.47.227.113.503.17.83.17.293 0 .557-.063.79-.19.24-.127.437-.29.59-.49.153-.2.263-.42.33-.66.067-.247.1-.517.1-.81 0-.327-.053-.65-.16-.97a1.55 1.55 0 00-.56-.8 1.79 1.79 0 00-1.1-.35zm4.803 4.77v-5.27h3.57v.55h-2.91V33h-.66zm5.823-2.42c.013.28.06.537.14.77.086.233.206.437.36.61.153.167.34.3.56.4.226.093.49.14.79.14a2.237 2.237 0 00.83-.16c.133-.06.253-.137.36-.23a.967.967 0 00.25-.35h.69a1.58 1.58 0 01-.34.6 1.903 1.903 0 01-.51.41 2.45 2.45 0 01-.63.22 3.37 3.37 0 01-.68.07c-.414 0-.777-.067-1.09-.2a2.156 2.156 0 01-.77-.55 2.325 2.325 0 01-.46-.85 3.78 3.78 0 01-.15-1.09c0-.4.053-.767.16-1.1.106-.333.263-.617.47-.85a2.1 2.1 0 01.78-.55c.313-.133.67-.2 1.07-.2.42 0 .773.083 1.06.25.293.167.53.387.71.66.18.267.306.577.38.93.08.347.113.703.1 1.07h-4.08zm3.41-.55a2.401 2.401 0 00-.12-.69 1.53 1.53 0 00-.31-.57 1.365 1.365 0 00-.51-.39c-.207-.1-.447-.15-.72-.15-.274 0-.517.05-.73.15a1.65 1.65 0 00-.53.4c-.147.167-.26.36-.34.58-.08.213-.127.437-.14.67h3.4zm2.811 2.97v-5.27h.66v2.41h2.98v-2.41h.66V33h-.66v-2.31h-2.98V33h-.66zm10.482-5.27v.55h-1.89V33h-.66v-4.72h-1.89v-.55h4.44zm4.008 5.33a2.7 2.7 0 01-1.08-.2 2.11 2.11 0 01-.77-.56 2.452 2.452 0 01-.47-.85c-.1-.327-.15-.683-.15-1.07 0-.4.053-.763.16-1.09a2.37 2.37 0 01.48-.86 2.18 2.18 0 01.79-.56c.313-.133.677-.2 1.09-.2.48 0 .9.117 1.26.35.367.233.613.59.74 1.07h-.67a1.078 1.078 0 00-.53-.65 1.706 1.706 0 00-.84-.21c-.313 0-.587.057-.82.17-.227.113-.417.27-.57.47-.147.193-.257.42-.33.68a3.06 3.06 0 00-.11.83c0 .287.037.56.11.82.073.253.183.477.33.67.153.193.347.347.58.46.24.113.52.17.84.17.32 0 .607-.06.86-.18s.437-.343.55-.67h.68c-.073.247-.18.46-.32.64a1.985 1.985 0 01-1.12.69c-.227.053-.457.08-.69.08zm8.046-5.33v.55h-1.89V33h-.66v-4.72h-1.89v-.55h4.44zm1.738 0h2.02c.2 0 .41.013.63.04.227.027.43.083.61.17.187.087.34.213.46.38.127.16.193.377.2.65.007.253-.05.487-.17.7a1.21 1.21 0 01-.55.51c.32.067.573.207.76.42.187.207.28.5.28.88 0 .293-.06.543-.18.75-.113.2-.267.36-.46.48-.16.107-.347.183-.56.23-.213.04-.43.06-.65.06h-2.39v-5.27zm.66.55v1.75h1.34c.133 0 .29-.013.47-.04a1.18 1.18 0 00.46-.18.807.807 0 00.26-.26.813.813 0 00.1-.42.765.765 0 00-.12-.45.709.709 0 00-.3-.26 1.223 1.223 0 00-.42-.11 3.553 3.553 0 00-.46-.03h-1.33zm0 4.17h1.56c.153 0 .31-.01.47-.03.16-.027.303-.07.43-.13a.942.942 0 00.33-.27.782.782 0 00.13-.47c0-.227-.047-.403-.14-.53a.83.83 0 00-.35-.29 1.43 1.43 0 00-.49-.12 4.533 4.533 0 00-.52-.03h-1.42v1.87zm8.028-4.78a2.7 2.7 0 011.08.2c.313.133.573.32.78.56.213.24.373.527.48.86.107.327.16.687.16 1.08s-.053.757-.16 1.09c-.107.327-.267.61-.48.85a2.152 2.152 0 01-.78.55 2.7 2.7 0 01-1.08.2c-.413 0-.777-.067-1.09-.2a2.26 2.26 0 01-.78-.55 2.452 2.452 0 01-.47-.85 3.78 3.78 0 01-.15-1.09c0-.393.05-.753.15-1.08a2.44 2.44 0 01.47-.86c.213-.24.473-.427.78-.56.313-.133.677-.2 1.09-.2zm0 4.83c.32 0 .597-.053.83-.16a1.56 1.56 0 00.57-.46c.153-.193.263-.42.33-.68.073-.26.11-.537.11-.83 0-.293-.037-.57-.11-.83a1.807 1.807 0 00-.33-.68 1.56 1.56 0 00-.57-.46 1.881 1.881 0 00-.83-.17c-.32 0-.597.057-.83.17a1.646 1.646 0 00-.58.46c-.147.193-.257.42-.33.68-.067.26-.1.537-.1.83 0 .293.033.57.1.83.073.26.183.487.33.68.153.193.347.347.58.46.233.107.51.16.83.16z" fill="#060708" fill-opacity=".8"/><g clip-path="url(#clip1_397_6904)"><path fill-rule="evenodd" clip-rule="evenodd" d="M14.664.054L14.988 0h.156l-.432 1.47-.225.784.509-.118c.456-.105.915-.18 1.379-.226.461-.058.9-.08 1.319-.065.583.021 1.213.07 1.89.148 1.752.18 3.55.564 5.179 1.246l.323.135s-.184.09-.207.1c-.547.226-1.903.789-1.91.814a99.307 99.307 0 011.845 1.005l.618.352c2.146 1.233 3.987 2.8 5.477 4.74 2.457 3.134 4.098 7.283 4.09 11.277a.017.017 0 00-.007.006.01.01 0 01-.005.003h-.002l-.004-.001-2.008-1.531-1.33-1.012a.738.738 0 00-.124-.081c.011.783-.022 1.564-.097 2.344v.004a20.185 20.185 0 01-.449 2.831 21.951 21.951 0 01-.547 2.017c-.303.93-.651 1.84-1.046 2.736a30.238 30.238 0 01-1.07 2.172 39.75 39.75 0 01-1.065 1.857c-.009.014-.017.014-.025 0l-1.45-2.541c-.003-.004-.006-.008-.012-.008h-.005l-.003.002a44.278 44.278 0 01-8.915 9.043h-.015l-.002-.001-.002-.002c-.798-1.219-1.542-2.498-2.264-3.77a87.576 87.576 0 01-1.877-3.48A80.27 80.27 0 0110.21 27a76.042 76.042 0 01-1.52-3.81 5.367 5.367 0 00-1.519.66c-1.099.745-1.605 1.872-1.58 3.178l-.003.046a.374.374 0 00.005.122c.002.008 0 .01-.008.007a.158.158 0 01-.058-.043C3.432 25.632 1.72 23.52 1.087 21a10.75 10.75 0 01-.32-2.715.128.128 0 00-.028-.078l-.076-.102c-.535-.695-.918-1.613-.306-2.4.1-.132.235-.267.405-.406 1.176-.96 2.353-1.92 3.531-2.879.527-.422 1.146-1.04.721-1.761a.443.443 0 01-.045-.268c.049-.518.329-.878.704-1.229.245-.229.48-.464.712-.705.267-.288.538-.572.813-.852a.234.234 0 00.053-.084c-.003-.009 0-.018.006-.025.35-1.153.857-2.235 1.52-3.245.189-.284.391-.558.609-.82a9.812 9.812 0 011.923-1.822A9.524 9.524 0 0113.33.484c.335-.14.665-.235 1.005-.333.109-.032.219-.063.33-.097z" fill="#CD0A70"/><path d="M14.664.054L14.988 0a.1.1 0 01-.032.054.044.044 0 01-.023.008.12.12 0 00-.059.026c-.387.28-.686.505-.894.675l-.052.04c-.062 0-.11.007-.166-.023-.055-.029-.387-.21-.384-.257 0-.003 0-.006-.003-.009a.014.014 0 00-.008-.004.052.052 0 01-.038-.026c.443-.184.875-.291 1.335-.43z" fill="#FFA94E"/><path d="M14.988 0h.156l-.432 1.47c-.044-.007-.008-.057-.009-.078a.012.012 0 00-.004-.008.022.022 0 00-.01-.005.027.027 0 01-.02-.016.051.051 0 00-.013-.02 6.36 6.36 0 01-.313-.26c-.031-.028-.083-.055-.114-.096a2.496 2.496 0 00-.204-.226.016.016 0 00-.02-.002c-.006.004-.015.005-.026.004.21-.17.507-.395.895-.675a.12.12 0 01.059-.026.044.044 0 00.023-.008.1.1 0 00.032-.054z" fill="#FF8C57"/><path d="M13.328.484a.052.052 0 00.038.026c.004 0 .006.002.008.004a.012.012 0 01.003.01c-.003.046.33.227.384.256.056.03.105.022.166.023-.463.379-.901.782-1.315 1.21l-.346.367c-.05.023-.091.022-.127-.004-.076-.057-.155-.101-.225-.167a.692.692 0 00-.073-.058c-.063-.045-.123-.109-.178-.151a1.426 1.426 0 01-.325-.351.015.015 0 01-.003-.01c0-.003.001-.006.003-.008.018-.022.008-.03-.03-.022a9.519 9.519 0 012.02-1.125z" fill="#FF9555"/><path d="M14.712 1.47l-.225.784a5.836 5.836 0 00-.592.176 5.464 5.464 0 00-.54.198.077.077 0 01-.087-.013c-.175-.152-.35-.292-.494-.474a.462.462 0 00-.161-.129c.413-.427.851-.83 1.314-1.21l.052-.04c.011.002.02 0 .027-.003a.016.016 0 01.01-.003c.004 0 .007.002.01.005.073.075.14.144.203.226.03.04.083.068.114.096.102.09.206.176.313.26.005.003.01.01.014.02.004.008.01.014.02.016.003 0 .007.002.01.005a.012.012 0 01.003.008c0 .021-.035.071.01.078z" fill="#FF775E"/><path d="M11.31 1.609c.037-.007.046 0 .029.022a.016.016 0 00-.003.009c0 .003 0 .006.002.009.09.136.199.253.326.35.055.043.115.107.178.152a.702.702 0 01.072.058c.07.066.15.11.226.167.035.026.077.027.126.004l-.21.253a8.085 8.085 0 00-.579.759 6.85 6.85 0 00-.395.616.553.553 0 01-.106.127c-.109.101-.247.24-.415.415a4.296 4.296 0 01-.41-.298 9.576 9.576 0 00-.449-.387c-.117-.094-.188-.2-.311-.326a.04.04 0 00-.022-.01c-.057-.009.05-.055.017-.1a9.811 9.811 0 011.923-1.82z" fill="#FF7B5C"/><path d="M19.584 1.993c-.013.03-.119-.034-.074.058.025.052.023.112.033.156.02.087.021.174.043.256.038.138.07.283.122.411.096.232.207.457.335.674l-.485.067c-.477.067-.95.147-1.423.24-.428.08-.855.17-1.28.27l-.066-.002a.02.02 0 01-.01-.004.023.023 0 01-.009-.009c-.062-.13-.11-.305-.144-.4a6.076 6.076 0 01-.193-.707.68.68 0 01-.012-.076c-.006-.064-.028-.11-.03-.173a.585.585 0 00-.007-.098 2.173 2.173 0 01-.043-.509c.002-.058-.021-.102-.028-.16 0-.004 0-.007.002-.01a.02.02 0 01.009-.008.095.095 0 00.051-.059c.461-.058.9-.08 1.319-.065.583.021 1.213.07 1.89.148z" fill="#FF8C57"/><path d="M16.376 1.91a.095.095 0 01-.051.06.02.02 0 00-.008.007.016.016 0 00-.003.01c.007.058.03.102.028.16-.006.172.009.341.043.51a.585.585 0 01.008.097c.001.063.023.109.029.173a6.057 6.057 0 00.206.783c.032.095.081.27.144.4a.023.023 0 00.007.01.02.02 0 00.011.003l.067.001-.734.19-.487.135c-.079.03-.126.011-.154-.068a8.36 8.36 0 01-.333-1.193 3.402 3.402 0 00-.037-.169c-.02-.077-.004-.169-.02-.22a.534.534 0 01-.022-.21c.006-.066-.024-.12-.025-.186a.838.838 0 00-.049-.267c.456-.105.916-.18 1.38-.226z" fill="#FF775E"/><path d="M19.585 1.993c1.751.18 3.548.564 5.178 1.246.045.112-.216.127-.276.125a29.155 29.155 0 00-3.343.08l-1.1.104a5.332 5.332 0 01-.335-.674c-.053-.128-.085-.273-.122-.41-.022-.083-.024-.17-.043-.257-.01-.044-.008-.104-.034-.156-.044-.092.062-.027.075-.058z" fill="#FFAB4D"/><path d="M13.895 2.43a.06.06 0 00.042-.004.008.008 0 01.007 0l.003.003.001.003c.004.076.006.128.024.21.014.07.006.148.014.21a4.805 4.805 0 00.07.462c.025.181.078.361.117.54.01.04.031.088.038.134.008.05.014.084.019.1.072.233.15.464.235.692.007.02.02.028.04.025l-.98.355c-.017-.007-.034-.004-.052.009a.023.023 0 01-.036-.01 9.055 9.055 0 01-.268-.78 8.595 8.595 0 00-.118-.494 2.846 2.846 0 01-.054-.252c-.032-.193-.073-.325-.082-.478-.005-.094-.03-.178-.035-.27l-.001-.006a.013.013 0 00-.003-.004.012.012 0 00-.009-.003c-.107.007-.252.1-.346.152a.015.015 0 01-.018-.003 46.62 46.62 0 01-.35-.342c-.03-.031-.063-.047-.097-.046l.21-.253.347-.368c.066.033.12.076.16.129.144.182.32.322.495.474a.077.077 0 00.087.013 5.45 5.45 0 01.54-.198z" fill="#FF5F64"/><path d="M14.996 2.136a.838.838 0 01.05.267c0 .065.03.12.025.187a.534.534 0 00.021.208c.017.052.001.144.02.221.01.04.023.096.037.169.07.364.181.761.334 1.193.028.08.075.099.153.068l-1.13.356c-.02.003-.034-.005-.04-.025a12.225 12.225 0 01-.236-.691.792.792 0 01-.018-.101c-.007-.046-.03-.093-.038-.134-.04-.179-.092-.359-.117-.54a4.803 4.803 0 01-.071-.462c-.008-.062 0-.14-.014-.21a1.219 1.219 0 01-.024-.21V2.43a.008.008 0 00-.006-.003h-.005a.06.06 0 01-.042.004c.196-.07.393-.129.592-.176l.51-.118z" fill="#FF6B60"/><path d="M13.524 5.16a6.8 6.8 0 00-.551.235 3.22 3.22 0 00-.529.223l-.706-.367a.08.08 0 00.029-.019.02.02 0 00.005-.01V5.21a13.115 13.115 0 00-.12-.426 7.547 7.547 0 01-.232-1.006v-.012a.567.567 0 01.163-.144c.18-.092.007-.179-.056-.257l-.003-.002h-.004l-.003.001-.002.003c-.007.016-.02.024-.038.025a7.85 7.85 0 01.58-.759c.032 0 .065.015.096.046l.35.342a.015.015 0 00.008.004l.01-.001c.094-.053.238-.145.346-.152h.004a.012.012 0 01.009.012c.004.093.03.177.035.27.009.154.05.286.082.48.014.085.032.169.053.251a8.665 8.665 0 01.118.494 9.09 9.09 0 00.275.788.024.024 0 00.02.006.023.023 0 00.01-.004c.018-.013.035-.016.051-.01z" fill="#FF5167"/><path d="M24.764 3.239l.322.135c.01.004.01.009 0 .013-.201.085-2.108.871-2.116.9l-.916.389-.162.066a.112.112 0 00-.052.005.017.017 0 01-.01 0 .015.015 0 01-.008-.006 6.517 6.517 0 01-.607-1.24c-.005-.013-.006-.024-.001-.034a.01.01 0 000-.004v-.004a.008.008 0 00-.006-.005l-.063-.01a29.157 29.157 0 013.343-.08c.06.002.32-.013.276-.125z" fill="#FF8F56"/><path d="M11.738 5.25c-.43-.2-.87-.377-1.319-.53l.142-.17c.167-.175.306-.314.415-.415a.555.555 0 00.105-.127 6.86 6.86 0 01.396-.616.043.043 0 00.038-.025c0-.001 0-.002.002-.003a.007.007 0 01.007 0l.003.001c.063.078.235.165.056.257a.567.567 0 00-.162.144.03.03 0 00-.001.012c.051.339.135.677.232 1.006.043.141.082.283.12.426a.025.025 0 010 .013.02.02 0 01-.005.01.079.079 0 01-.03.018z" fill="#FF446A"/><path d="M9.386 3.43c.034.044-.074.09-.017.1a.04.04 0 01.022.01c.124.124.195.23.312.325.154.125.303.254.449.387.06.055.197.154.41.298l-.142.17-.825.62c.048-.051.047-.094-.002-.13-.124-.089-.228-.192-.305-.245-.074-.051-.125-.114-.173-.157a8.613 8.613 0 01-.35-.336c-.038-.038-.04-.074-.01-.109a.028.028 0 00.006-.01.033.033 0 00.002-.012c-.002-.036.056-.074.014-.09a9.78 9.78 0 01.609-.821z" fill="#FF6762"/><path d="M21.144 3.444l.063.01.004.002.002.003a.01.01 0 010 .008c-.005.01-.004.021 0 .034.164.445.366.858.608 1.24a.015.015 0 00.008.006.017.017 0 00.01 0 .112.112 0 01.052-.005l-1.39.585a.234.234 0 00-.113.037h-.005a.012.012 0 01-.007-.006 8.6 8.6 0 01-.559-1.125 5.203 5.203 0 01-.148-.409c-.013-.051-.072-.159-.046-.19.004-.005.003-.007-.004-.006a.094.094 0 01-.06-.013l.485-.067 1.1-.104z" fill="#FF7E5B"/><path d="M19.56 3.615a.095.095 0 00.06.013c.006-.001.008.001.003.006-.025.031.033.139.047.19.015.059.064.195.147.41a8.598 8.598 0 00.562 1.127l.005.002a.013.013 0 00.01-.001.234.234 0 01.107-.035l-1.338.564a.21.21 0 00-.1.027.014.014 0 01-.01.001.013.013 0 01-.008-.005 6.104 6.104 0 01-.481-.955 9.887 9.887 0 01-.391-1.084.024.024 0 00-.006-.01.02.02 0 00-.01-.006l-.02-.004c.471-.093.946-.173 1.422-.24z" fill="#FF715F"/><path d="M18.136 3.855l.02.004a.02.02 0 01.01.006.024.024 0 01.006.01c.093.322.223.684.392 1.084.151.362.292.657.481.955a.013.013 0 00.008.005l.01-.001a.21.21 0 01.1-.027l-1.962.815c-.01-.012-.021-.014-.031-.006a.022.022 0 01-.018.005.022.022 0 01-.009-.004 12.814 12.814 0 01-.45-.917.344.344 0 01-.034-.13c0-.002-.002-.002-.003-.003h-.004a.015.015 0 01-.007-.003 10.402 10.402 0 00-.38-1.012c-.03-.082-.04-.185-.082-.273a.026.026 0 01.004-.027c.027-.032.026-.04-.004-.02a.028.028 0 01-.018.003l-.042-.006.734-.189c.424-.1.85-.19 1.28-.269z" fill="#FF6263"/><path d="M8.778 4.25c.041.017-.017.055-.015.091l-.001.012a.028.028 0 01-.006.01c-.032.035-.029.071.009.11.113.114.23.226.35.335.048.043.099.106.173.157.077.053.18.156.305.246.049.035.05.078.002.129l-.988.762c-.66.69-1.096 1.147-1.307 1.373-.015.016-.029.023-.043.021.35-1.153.857-2.235 1.52-3.245z" fill="#FF5567"/><path d="M22.97 4.288c.621.323 1.236.658 1.844 1.005-.01.005-.015.012-.012.022a.016.016 0 00.006.008.034.034 0 00.012.006c.038.01.065.034.082.07a.02.02 0 01-.003.022.563.563 0 01-.168.13c-.262.143-.58.354-.864.54-.46.303-.903.627-1.33.974-.052.043-.13.093-.191.15-.129.122-.271.215-.396.34-.194.193-.437.349-.606.544-.038.044-.08.065-.127.064a.045.045 0 01-.023-.008c-.058-.04-.132-.05-.183-.076a14.97 14.97 0 00-.368-.176c-.005-.002-.007 0-.005.006s0 .01-.006.012a.227.227 0 00-.022.012 2.72 2.72 0 00-.234.223c-.054.073-.129.131-.182.195a5.057 5.057 0 01-.267.3c-.081.084-.157.19-.25.291-.137.15-.407.492-.811 1.025-.058.076-.17.235-.336.475-.075.11-.166.22-.25.37a.286.286 0 00-.033.19l-.087-.175a16.272 16.272 0 00-1.215-2.074c.03.01.045-.006.044-.046a.04.04 0 01.007-.024c.054-.074.198-.265.431-.571.103-.136.212-.26.316-.39.14-.178.283-.324.386-.463a.85.85 0 01.09-.097c.072-.07.119-.155.21-.217a.026.026 0 01.024-.003c.232.076.458.166.68.267.108.05.125.006.194-.06.22-.216.44-.432.658-.65a.022.022 0 00.006-.009.031.031 0 00.001-.012c-.002-.02.008-.03.029-.028l.012-.001a.023.023 0 00.01-.006c.128-.126.246-.232.353-.317.143-.113.257-.232.4-.34.06-.045.119-.094.175-.147.101-.094.223-.166.324-.267.03-.03.135-.11.314-.241.045-.033.1-.083.158-.12a.982.982 0 00.118-.087c.052-.043.117-.075.167-.115a1.77 1.77 0 01.143-.102c.083-.054.086-.078.009-.075-.038.002-.132.069-.15.044l.916-.388z" fill="#FF4C68"/><path d="M17.201 6.706l-1.422.55a.095.095 0 00-.031-.023 8.331 8.331 0 00-2.055-1.511l-.72-.327a6.64 6.64 0 01.551-.235l.981-.355 1.13-.356.488-.136.042.006c.006.001.013 0 .018-.004.03-.018.031-.011.004.02a.026.026 0 00-.004.028c.042.088.052.19.082.272.042.112.092.257.15.437a5.665 5.665 0 00.23.576.015.015 0 00.007.003h.004l.003.002.001.003c0 .034.012.076.035.128a12.816 12.816 0 00.449.917.021.021 0 00.026 0c.01-.01.02-.007.031.005z" fill="#FF4E68"/><path d="M16.945 8.753l-.424-.59a22.28 22.28 0 00-.742-.908l1.422-.55 1.962-.814 1.338-.564 1.39-.585.163-.066c.018.025.112-.042.15-.044.077-.003.074.021-.009.075-.05.031-.097.065-.143.102-.05.04-.115.072-.167.115a1.158 1.158 0 01-.118.088c-.058.036-.113.086-.158.119a4.21 4.21 0 00-.314.241c-.1.101-.223.173-.324.267a2.116 2.116 0 01-.175.147c-.143.108-.257.227-.4.34a4.34 4.34 0 00-.353.317.024.024 0 01-.01.006.032.032 0 01-.012.001c-.021-.002-.031.007-.029.028l-.001.012a.022.022 0 01-.006.01c-.218.217-.438.433-.658.648-.069.067-.086.111-.194.061a6.56 6.56 0 00-.68-.267.027.027 0 00-.024.003c-.091.062-.138.148-.21.217a.852.852 0 00-.09.097c-.103.14-.245.285-.386.463-.104.13-.213.254-.316.39-.233.306-.377.497-.431.571a.04.04 0 00-.007.024c0 .04-.014.056-.044.046z" fill="#FF416B"/><path d="M10.42 4.72c.45.153.89.33 1.319.53l.706.368c.304.178.598.368.882.568l.21.16c-.012.007-.02.007-.026-.003-.005-.008-.007-.008-.007.002 0 .034.114.1.143.146a.013.013 0 01.001.01.013.013 0 01-.005.008c-.678.451-1.38.787-2.138 1.08-.1.04-.288.1-.43.165a.02.02 0 01-.022-.004.072.072 0 00-.062-.024 10.992 10.992 0 00-2.327-1.584.178.178 0 01-.058-.04l.989-.762.825-.62z" fill="#FF9555"/><path d="M24.815 5.293l.617.352a.077.077 0 00.02.075c.124.131.243.267.357.407a18.183 18.183 0 00-3.357 2.37c-.07.066-.158.133-.227.211a.02.02 0 01-.021.006c-.126-.04-.234-.122-.338-.173a4.736 4.736 0 01-.168-.085.014.014 0 00-.012.006.013.013 0 00-.002.006c-.006.039-.037.06-.066.088-.554.522-1.116 1.194-1.563 1.775-.04.053-.072.07-.064.148a.01.01 0 01-.003.008.01.01 0 01-.003.002h-.004a.092.092 0 00-.079.04 21.472 21.472 0 00-1.102 1.646.024.024 0 000 .023.31.31 0 01.031.192 25.583 25.583 0 00-.583-1.388c-.01-.07 0-.132.032-.19.085-.15.175-.26.25-.37.166-.24.278-.399.336-.475.404-.533.675-.874.812-1.025.092-.1.168-.207.25-.29.092-.097.182-.197.267-.3.052-.065.127-.123.182-.196.021-.029.1-.103.233-.223l.023-.012c.005-.002.007-.006.005-.012s0-.008.005-.006c.124.057.247.116.369.176.05.025.124.036.182.076a.045.045 0 00.024.008c.046.001.088-.02.127-.064.169-.195.411-.351.605-.545.125-.124.268-.217.396-.338.062-.058.14-.108.192-.151.426-.347.87-.671 1.33-.973.284-.187.601-.398.864-.542a.564.564 0 00.168-.13.021.021 0 00.004-.01.02.02 0 00-.002-.011.122.122 0 00-.081-.07.033.033 0 01-.012-.006.018.018 0 01-.006-.008c-.003-.01 0-.017.012-.022z" fill="#FF5567"/><path d="M12.974 5.395l.72.327a1.49 1.49 0 00-.29.363.493.493 0 01-.077.101c-.284-.2-.578-.39-.882-.568.17-.09.347-.165.529-.223z" fill="#CD0A70"/><path d="M25.431 5.645a18.946 18.946 0 013.936 3.002c-.037-.01-.044.001-.02.03a.025.025 0 01.001.03.028.028 0 01-.008.009c-.135.08-.311.147-.42.196a95.961 95.961 0 00-.67.306c-.004 0-.008 0-.012-.002l-.021-.008c-.308-.43-.624-.855-.948-1.274a33.238 33.238 0 00-1.461-1.807 7.615 7.615 0 00-.357-.407.077.077 0 01-.02-.075z" fill="#FF4E68"/><path d="M13.694 5.722a8.33 8.33 0 012.054 1.51 8.007 8.007 0 01-.83.359 10.48 10.48 0 00-1.38-1.246l-.211-.159a.497.497 0 00.077-.1 1.49 1.49 0 01.29-.364z" fill="#E60D6C"/><path d="M8.606 6.102a.179.179 0 00.058.04c.831.42 1.607.948 2.327 1.584.568.516 1.07 1.086 1.508 1.71.014.094-.21-.075-.234-.09a14.838 14.838 0 00-3.641-1.691c-.358-.11-.725-.212-1.102-.304a.073.073 0 00-.037 0 .077.077 0 00-.033.02l-.102.097a.064.064 0 00-.014.02.098.098 0 01-.072.061h-.003a.007.007 0 01-.003-.002l-.001-.003V7.54a.022.022 0 00-.006-.019.024.024 0 01.006-.025c.014.002.028-.005.043-.02.21-.227.646-.685 1.306-1.374z" fill="#FF6C5E"/><path d="M25.809 6.127c.508.586.995 1.188 1.461 1.807-.837.43-1.629.93-2.374 1.5-.09.07-.217.177-.33.26-.082.06-.153.142-.24.205-.054.039-.097.109-.178.06a.864.864 0 00-.171-.087c-.075-.03-.13-.112-.213-.007-.053.066-.137.124-.19.178-.2.2-.4.402-.596.604-.045.046-.072.096-.114.136-.133.126-.23.27-.354.4-.09.096-.16.201-.249.297-.047.052-.08.117-.128.171l-.103.118c-.248.32-.482.649-.7.989-.064.098-.166.233-.228.351-.023.043-.011.073.035.09.082.03.16.057.234.08.043.014.065.041.066.083-.842-.35-1.701-.65-2.579-.902a.01.01 0 01-.008-.007l-.019-.063a.31.31 0 00-.032-.193.024.024 0 010-.022c.312-.519.68-1.067 1.103-1.645.021-.029.047-.042.078-.04h.005a.01.01 0 00.006-.007.01.01 0 000-.004c-.008-.077.024-.095.064-.148.447-.581 1.009-1.253 1.563-1.775.029-.027.06-.05.066-.088l.002-.006a.014.014 0 01.012-.006 4.736 4.736 0 00.168.085c.104.051.212.133.338.173a.02.02 0 00.021-.006c.069-.078.156-.145.227-.212a18.184 18.184 0 013.357-2.37z" fill="#FF5F64"/><path d="M13.537 6.345c.5.376.96.792 1.381 1.246.3.327.582.668.845 1.025a1.935 1.935 0 01-.275.205c-.782.507-1.474.898-2.28 1.241-.106.045-.184.08-.233.107a8.531 8.531 0 00-.476-.732 10.286 10.286 0 00-1.508-1.71.072.072 0 01.061.023.02.02 0 00.023.004c.142-.066.33-.126.43-.165.758-.293 1.46-.629 2.137-1.08a.013.013 0 00.006-.008c0-.004 0-.007-.002-.01-.028-.047-.142-.112-.143-.146 0-.01.003-.01.008-.002.005.01.014.01.027.002z" fill="#FF8958"/><path d="M15.748 7.233c.009.003.019.01.03.022.256.296.503.598.743.908a.15.15 0 01-.095.14 1.348 1.348 0 00-.37.235 7.038 7.038 0 01-.208.198l-.086-.12a12.193 12.193 0 00-.844-1.025c.285-.104.561-.224.83-.358z" fill="#CD0A70"/><path d="M12.5 9.437c.171.237.33.48.475.732a12.1 12.1 0 01.959 2.061c.005.014.105.265-.012.15-.212-.206-.419-.422-.644-.615a4.478 4.478 0 01-.198-.18c-.177-.17-.381-.308-.575-.475-.107-.092-.36-.274-.762-.545a.396.396 0 01-.068-.055.049.049 0 00-.02-.014.771.771 0 01-.113-.065 13.599 13.599 0 00-3.004-1.445 15.158 15.158 0 00-1.855-.478c-.076-.015-.134-.046-.225-.022-.01.003-.042.004-.024-.015a.023.023 0 00.006-.01c.001-.004 0-.007-.001-.01a.013.013 0 00-.014-.005c-.002 0-.004.003-.007.006a.098.098 0 00-.01.012c-.004.008-.012.006-.023-.007a46.5 46.5 0 01.813-.852.234.234 0 00.053-.084.022.022 0 01.006.02.008.008 0 00.001.006l.003.002h.003a.098.098 0 00.072-.06.064.064 0 01.014-.02l.102-.098a.078.078 0 01.033-.02.073.073 0 01.037 0c.377.092.744.193 1.102.304 1.293.4 2.507.964 3.64 1.69.024.016.249.184.236.092z" fill="#FF735D"/><path d="M27.27 7.934c.324.419.64.843.947 1.274l.222.323a.13.13 0 00-.132.025.199.199 0 01-.06.035c-.123.043-.23.11-.336.17-.39.214-.772.445-1.143.691-.033.022-.043.047-.093.043a.008.008 0 00-.009.008v.008a.028.028 0 01-.012.02l-.534.39c-.075.056-.183.161-.302.222a.048.048 0 01-.035.004.617.617 0 01-.165-.066c-.08-.05-.1-.005-.15.04a18.4 18.4 0 00-.775.755c-.11.114-.228.227-.323.346-.076.095-.163.17-.235.267-.075.102-.161.181-.235.288-.049.071-.114.125-.16.194a1.345 1.345 0 01-.06.088c-.243.286-.45.611-.657.923a.024.024 0 00-.004.019.023.023 0 00.011.015l.186.11c.038.023.07.038.098.045.02.006.027.02.018.045l-.2-.086a24.78 24.78 0 00-1.696-.768c0-.042-.023-.07-.065-.083a5.964 5.964 0 01-.234-.08c-.046-.017-.058-.047-.036-.09.063-.118.165-.254.228-.351.219-.34.452-.67.7-.99.002 0 .036-.04.104-.117.047-.054.08-.119.128-.17.089-.097.158-.202.248-.297.124-.132.221-.275.355-.401.042-.04.07-.09.114-.136.197-.203.395-.404.595-.604.054-.054.138-.112.19-.178.084-.105.138-.022.213.007a.867.867 0 01.172.086c.08.05.124-.02.177-.059.088-.063.158-.144.24-.205.113-.083.24-.19.331-.26.745-.57 1.536-1.07 2.374-1.5z" fill="#FF6B60"/><path d="M16.521 8.163l.424.59c.458.665.863 1.356 1.215 2.074-.17.11-.35.199-.541.264-.126.044-.284.05-.425.102l-.187-.413a12.375 12.375 0 00-1.159-2.044c.071-.064.14-.13.208-.198.078-.077.232-.175.37-.234a.15.15 0 00.095-.141z" fill="#E60D6C"/><path d="M12.975 10.17c.05-.027.127-.063.233-.108.806-.343 1.498-.734 2.28-1.24.126-.083.218-.15.274-.206l.086.12c.452.646.839 1.327 1.16 2.043-.018.05-.005.099.04.147a.034.034 0 01.009.023c0 .073-.044.072-.093.103a11.22 11.22 0 00-.29.193.018.018 0 00-.006.008.024.024 0 00-.002.012c.003.025-.01.037-.036.036-.101-.003-.163.075-.226.112-.264.155-.529.307-.795.456-.09.05-.201.094-.284.14-.241.136-.527.26-.746.364a6.45 6.45 0 01-.482.204.015.015 0 00-.008.007.015.015 0 00-.002.01c.02.093.066.154.074.236a.961.961 0 00.017.123c.112.403.202.765.269 1.085a2.95 2.95 0 01-.084 1.532 3.896 3.896 0 01-.318.707 3.453 3.453 0 01-.243-.398c-.04-.077-.101-.156-.152-.246a9.998 9.998 0 00-.377-.548 5.056 5.056 0 00-.29-.378 3.648 3.648 0 01-.216-.27c-.082-.114-.2-.228-.277-.315a6.255 6.255 0 00-.702-.692c-.037-.031-.08-.08-.125-.112-.097-.069-.163-.154-.261-.23a13.822 13.822 0 00-1.588-1.098 17.84 17.84 0 00-1.05-.532 2.113 2.113 0 00-.15-.062c-.102-.038-.192-.097-.272-.095-.002 0-.005 0-.007-.002a.014.014 0 01-.005-.004l-.004-.007a.037.037 0 00-.019-.015 11.06 11.06 0 00-1.571-.485c-.484-.11-.978-.21-1.467-.242a.725.725 0 01-.123-.018c-.058-.014-.1-.004-.126.03a.025.025 0 00-.004.009.066.066 0 000 .014l-.001.079a.442.442 0 01-.046-.269c.049-.518.329-.878.704-1.229.245-.229.479-.464.711-.705.011.013.02.015.025.007a.096.096 0 01.009-.012l.007-.006c.005 0 .01.001.014.006a.01.01 0 010 .009.023.023 0 01-.005.01c-.019.019.015.018.024.015.09-.024.149.007.225.022a15.16 15.16 0 011.855.478 13.6 13.6 0 013.004 1.445c.05.033.088.055.113.065a.05.05 0 01.02.014.396.396 0 00.068.055c.4.271.655.453.762.545.193.167.398.305.575.475.064.062.13.122.197.18.226.193.433.409.645.616.117.114.016-.137.011-.15a12.1 12.1 0 00-.958-2.062z" fill="#FF7D5B"/><path d="M29.368 8.647a16.576 16.576 0 011.541 1.738c-.013.023-.026.025-.038.006-.003-.003-.004-.003-.002.001.019.05.004.083-.046.101-.48.177-.9.35-1.258.518a.147.147 0 01-.119.005l-.333-.5-.674-.985-.221-.323.02.008a.032.032 0 00.025 0c.22-.103.439-.204.659-.304.108-.05.284-.116.42-.196a.025.025 0 00.012-.018v-.01a.026.026 0 00-.006-.01c-.024-.03-.017-.04.02-.031z" fill="#FF5F64"/><path d="M28.44 9.531l.673.985c-.576.276-1.149.607-1.718.99-.114.077-.22.162-.315.225-.135.088-.22.152-.253.192-.046.054-.099.055-.158.003a.08.08 0 00-.096-.013.404.404 0 00-.109.082c-.347.357-.715.691-1.06 1.052-.03.032-.048.077-.081.108-.095.085-.158.17-.235.264-.268.325-.521.66-.76 1.007-.045.064-.114.145-.118.228l-.878-.438c.009-.024.003-.04-.018-.045a.402.402 0 01-.098-.044l-.186-.11a.023.023 0 01-.011-.025l.004-.01c.207-.312.414-.637.656-.923.009-.01.03-.04.062-.088.045-.07.11-.123.16-.194.073-.107.159-.186.234-.288.072-.097.16-.172.235-.267.095-.12.213-.232.323-.346.25-.26.51-.511.775-.755.05-.046.07-.09.15-.04.04.025.095.047.165.066a.048.048 0 00.035-.004c.119-.06.227-.166.302-.221a119.703 119.703 0 01.542-.4.028.028 0 00.004-.011v-.008l.003-.006a.008.008 0 01.006-.002c.05.004.06-.021.093-.043.371-.246.752-.477 1.143-.692.106-.058.213-.126.335-.169a.198.198 0 00.061-.035.13.13 0 01.132-.025z" fill="#FF755E"/><path d="M30.909 10.385c.36.46.693.937 1 1.432-.006.021 0 .039.016.051.006.005.01.01.012.016.017.053-.059-.087-.05-.003a.02.02 0 01-.002.01.02.02 0 01-.008.009c-.085.053-.195.073-.265.098-.312.109-.62.226-.926.351-.058.024-.14.062-.248.115-.025.013-.053.011-.084-.005l-.096-.154-.812-1.289c.04.015.08.014.119-.005.357-.168.777-.34 1.258-.518.05-.018.064-.052.046-.1-.002-.005-.001-.005.001-.002.013.019.025.017.039-.006z" fill="#FF6B60"/><path d="M29.113 10.516l.333.5.812 1.289c-.077.024-.15.054-.22.09-.077.04-.17.082-.235.115-.475.237-.928.51-1.358.821-.068.05-.144.076-.204.134-.102.098-.23.193-.32.276-.283.26-.54.518-.773.775-.09.1-.174.185-.249.281-.099.127-.2.252-.303.375-.06.071-.155.219-.279.38a.392.392 0 00-.08.196 62.801 62.801 0 00-2.026-1.094c.004-.083.072-.164.117-.228.239-.346.492-.682.76-1.007.078-.094.14-.18.235-.264.034-.03.052-.076.082-.108.344-.361.712-.695 1.06-1.052a.402.402 0 01.109-.082.08.08 0 01.095.013c.06.052.112.051.158-.003a1.38 1.38 0 01.253-.192c.096-.063.202-.148.315-.224.57-.384 1.142-.715 1.718-.991z" fill="#FF7E5B"/><path d="M14.045 16.277c-.204.357-.442.69-.716.998a8.352 8.352 0 01-.83.803c0-.02.009-.032.026-.038a.032.032 0 00.02-.018.032.032 0 000-.028 18.187 18.187 0 01-.216-.463 11.262 11.262 0 00-.372-.66 6.838 6.838 0 00-.371-.55c-.021-.03-.035-.068-.063-.099a3.957 3.957 0 01-.05-.056 12.318 12.318 0 00-.385-.477 5.724 5.724 0 00-.209-.223c-.124-.128-.245-.285-.396-.41-.166-.136-.324-.318-.475-.419-.076-.05-.142-.115-.192-.152a9.45 9.45 0 00-2.325-1.318 8.904 8.904 0 00-.4-.133 14.317 14.317 0 00-.849-.25c-.078-.019-.152-.023-.224-.041a4.573 4.573 0 00-.417-.08c-.118-.018-.25-.052-.375-.058a1.455 1.455 0 01-.188-.016 1.8 1.8 0 00-.329-.04c-.154.016-.308.01-.46-.02-.036-.006.022-.007.02-.031l.003-.012a.021.021 0 01.006-.008c.019-.014.024-.034.015-.058.527-.422 1.146-1.04.721-1.76v-.08l.002-.013c0-.004.002-.008.004-.01.025-.033.067-.043.126-.029.04.01.08.016.122.018.49.032.984.132 1.467.242.537.123 1.06.284 1.572.485a.037.037 0 01.019.015l.004.007a.014.014 0 00.005.004.014.014 0 00.007.002c.08-.002.17.057.27.095.056.02.106.041.151.062.356.166.706.343 1.05.532a13.82 13.82 0 011.588 1.098c.098.076.165.162.262.23.045.032.088.08.124.112.253.212.487.443.703.692.076.087.194.2.276.314.068.094.14.184.217.271.07.08.166.205.29.378.214.3.34.483.376.548.051.09.113.169.153.246.072.138.153.27.243.399z" fill="#FF8857"/><path d="M17.007 10.78l.186.413c.133.316.255.637.366.961.106.284.2.559.247.877.045.291.073.52.084.688l-.03.108a.016.016 0 01-.007.008.023.023 0 01-.01.004.16.16 0 00-.066.025c-.357.216-.725.42-1.105.613a.022.022 0 00-.009.009.021.021 0 00-.002.012c.004.027-.007.037-.032.03a.06.06 0 00-.043.003c-.503.239-.995.474-1.51.678-.18.071-.412.173-.636.238-.033.01-.05.032-.05.067 0 .016-.01.035-.028.056a2.95 2.95 0 00.085-1.533c-.067-.32-.157-.68-.27-1.084a.942.942 0 01-.017-.123c-.008-.082-.053-.143-.073-.236 0-.003 0-.007.002-.01a.015.015 0 01.008-.007 6.41 6.41 0 00.482-.204c.218-.103.505-.228.746-.364.082-.046.193-.09.283-.14.267-.15.532-.301.796-.456.063-.037.124-.115.225-.112.027.001.04-.011.037-.036l.001-.012a.018.018 0 01.007-.008c.095-.066.192-.13.29-.193.048-.03.092-.03.092-.103a.034.034 0 00-.009-.023c-.044-.048-.058-.097-.04-.146z" fill="#FF715F"/><path d="M18.16 10.827l.087.175c.208.456.403.919.584 1.388l.02.063a17.019 17.019 0 00-1.291-.299 15.12 15.12 0 00-.366-.96c.141-.053.299-.06.425-.103.19-.065.37-.153.54-.264z" fill="#CF0A6F"/><path d="M31.908 11.817c.415.653.784 1.33 1.11 2.03-.032.04-.03.005-.037-.01-.026-.048-.034-.04-.024.023.001.003 0 .007-.001.01a.015.015 0 01-.009.007c-.134.051-.294.09-.409.13-.327.11-.646.218-.96.357-.049.021-.088.02-.118-.002l-.567-.986-.54-.917c.031.016.059.018.085.005.107-.053.19-.091.247-.115.306-.125.615-.242.927-.351.07-.025.179-.045.265-.098a.02.02 0 00.007-.008.021.021 0 00.002-.011c-.008-.084.067.056.05.003a.031.031 0 00-.011-.016c-.017-.012-.023-.03-.017-.051z" fill="#FF775E"/><path d="M17.56 12.154c.434.083.864.183 1.29.3a.01.01 0 00.008.006c.17.53.31 1.086.42 1.668a7.699 7.699 0 01-.01 3.021 5.467 5.467 0 01-.553 1.414l-.026-.001a.03.03 0 01-.012-.003.024.024 0 01-.009-.007 6.37 6.37 0 01-1.071-1.915c-.012-.034-.035-.047-.07-.048.145-.382.25-.774.317-1.177a6.73 6.73 0 00.047-1.693 8.995 8.995 0 00-.084-.688 4.27 4.27 0 00-.247-.877z" fill="#A70965"/><path d="M30.258 12.305l.097.154.539.917c-.023-.035-.03-.017-.05-.008a8.815 8.815 0 00-1.4.763c-.041.027-.093.073-.152.098-.057.024-.08.064-.07.12v.012a.02.02 0 01-.006.01l-.165.156c-.05.049-.117.089-.172.142-.098.093-.19.163-.276.254a3.918 3.918 0 01-.222.215c-.05.045-.082.101-.13.146-.074.07-.129.154-.2.222-.071.07-.136.146-.194.227-.046.065-.116.122-.16.2a1.632 1.632 0 01-.128.16c-.016.02-.021.05-.057.053a.012.012 0 00-.009.004.012.012 0 00-.003.008c0 .054-.038.079-.058.112l-.08.134-.415-.241-.71-.415a.39.39 0 01.08-.196c.124-.161.22-.309.28-.38.102-.123.203-.248.302-.375.075-.096.159-.18.25-.28.232-.258.49-.517.772-.776.09-.083.218-.178.32-.276.06-.058.136-.085.204-.134.43-.31.883-.584 1.358-.82.066-.034.158-.077.235-.116a1.43 1.43 0 01.22-.09z" fill="#FF8859"/><path d="M4.294 12.42c.008.024.003.043-.015.058a.021.021 0 00-.006.008.025.025 0 00-.002.012c.001.024-.058.025-.021.032.152.028.305.035.46.019a1.8 1.8 0 01.33.04c.045.008.107.013.187.016.126.006.257.04.374.058.135.02.294.048.418.08.071.018.146.022.224.041.174.042.457.125.85.25.202.064.335.108.4.133a9.45 9.45 0 012.324 1.318c.05.037.116.102.192.152.15.101.309.282.474.419.152.125.273.281.397.41.11.113.18.188.21.223.131.156.26.315.384.477 0 .002.017.02.05.056.028.03.042.07.063.098.161.22.285.404.37.55.215.366.339.586.373.661.067.151.14.305.215.463a.034.034 0 010 .027.034.034 0 01-.02.019c-.017.006-.025.018-.025.038-.543.466-1.117.89-1.723 1.272.02-.022.024-.045.014-.07a95.79 95.79 0 01-.134-.34c-.109-.277-.253-.538-.388-.802-.022-.044-.225-.386-.252-.386a.018.018 0 01-.01-.003.013.013 0 01-.005-.008.386.386 0 00-.07-.139c-.14-.19-.291-.37-.433-.559-.071-.095-.167-.168-.256-.263-.071-.076-.12-.15-.218-.224a2.788 2.788 0 01-.274-.253c-.128-.13-.3-.23-.447-.343a5.89 5.89 0 00-1.223-.71c-.039-.017-.083-.047-.135-.069a7.619 7.619 0 00-1.564-.46c-.053-.01-.124-.033-.194-.037a.982.982 0 01-.145-.016 1.6 1.6 0 00-.405-.034c-.048.002-.089-.024-.123-.024h-.747c-.055 0-.102.026-.166.023a1.305 1.305 0 00-.367.035c-.082.02-.166.017-.233.029a7.982 7.982 0 00-1.349.357c-.29.108-.539.215-.748.321a2.61 2.61 0 01-.267.124.02.02 0 01-.01 0 .035.035 0 01-.012-.004c-.028-.016-.095.073-.107.097-.006.01-.143.182-.152.113.1-.132.235-.267.405-.406l3.532-2.879z" fill="#FF9354"/><path d="M18.858 12.46c.878.252 1.737.552 2.579.902.58.237 1.144.493 1.695.768a64.19 64.19 0 011.014 2.414c-.058.057-.108.014-.162.011a4.822 4.822 0 00-.314-.005c-.06.001-.107-.03-.174-.026a1.576 1.576 0 01-.292-.005 2.514 2.514 0 00-.248-.019h-.281c-.058 0-.103.031-.166.027a1.648 1.648 0 00-.324.009c-.082.01-.148.015-.198.015-.075 0-.193-.013-.26.012-.061.023-.112.006-.17.02a.441.441 0 01-.103.016 1.29 1.29 0 00-.33.04c-.102.026-.181.007-.3.041a.665.665 0 01-.125.023c-.105.01-.208.043-.306.056a3.85 3.85 0 00-.314.06c-.267.06-.5.121-.703.182-.021.007-.037.007-.047 0a.015.015 0 00-.009-.003l-.003.002a.006.006 0 00-.003.003c-.029.05.01.111-.046.146a7.7 7.7 0 00.01-3.02c-.11-.583-.25-1.139-.42-1.668z" fill="#C70A70"/><path d="M30.893 13.376l.568.986.38.692a6.527 6.527 0 00-1.268.646c-.04.026-.044.053-.014.082l.061.058c.037.035.035.069-.005.1-.526.42-.986.9-1.378 1.443a.177.177 0 00-.033.13.02.02 0 00.004.01.026.026 0 00.01.007.152.152 0 01.06.05 91.91 91.91 0 00-1.917-1.176l.08-.134c.02-.033.06-.058.059-.112 0-.003 0-.006.003-.008a.012.012 0 01.009-.004c.035-.002.04-.033.057-.052a1.56 1.56 0 00.128-.162c.043-.077.114-.134.16-.199.058-.081.123-.157.195-.227.07-.068.124-.153.2-.222.047-.045.079-.101.129-.146.076-.069.15-.14.221-.215.086-.09.178-.16.276-.254.056-.053.122-.093.173-.142a8.03 8.03 0 01.165-.156.024.024 0 00.006-.021c-.01-.057.013-.098.07-.121.059-.025.11-.071.15-.098.444-.296.91-.55 1.4-.763.022-.01.028-.027.052.008z" fill="#FF9156"/><path d="M17.891 13.72a6.73 6.73 0 01-.047 1.692c-.026-.012-.04-.004-.04.024 0 .014-.021.034-.063.059a7.022 7.022 0 01-.383.211c-.521.267-1.052.512-1.594.735-.121.05-.22.087-.338.14a1.218 1.218 0 01-.19.066c-.032.009-.057.04-.08.044a.674.674 0 00-.144.045c-.277.111-.606.209-.93.32-.168.058-.304.082-.424.143a.052.052 0 01-.024.006c-.088 0-.136.049-.221.053a.064.064 0 01-.024-.005c-.02-.008-.04 0-.059.023a5.99 5.99 0 00.716-.999 3.8 3.8 0 00.317-.707c.018-.02.027-.04.027-.056 0-.035.018-.057.051-.067.224-.065.456-.167.637-.238.514-.204 1.006-.44 1.509-.678a.06.06 0 01.043-.004c.025.008.036-.002.032-.028 0-.005 0-.01.002-.013a.02.02 0 01.01-.01c.379-.191.747-.396 1.104-.612a.16.16 0 01.065-.025.024.024 0 00.011-.004.015.015 0 00.006-.008l.031-.108z" fill="#FF6762"/><path d="M33.018 13.847a20.2 20.2 0 01.689 1.667c-.029.04-.003.061.003.095.008.046.015.092.02.139a.012.012 0 01-.002.01.016.016 0 01-.008.006c-.34.098-.673.198-1.005.319-.058.02-.119.059-.196.06a.024.024 0 00-.02.011c-.026.042-.052.039-.076-.01l-.582-1.09-.38-.692c.03.022.07.023.118.002.314-.14.633-.247.96-.357.115-.04.275-.079.41-.13a.016.016 0 00.008-.007.015.015 0 00.001-.01c-.01-.063-.002-.07.024-.022.008.014.005.049.036.009z" fill="#FF835A"/><path d="M23.132 14.13l.2.086.879.438c.682.352 1.358.717 2.027 1.094l.709.415c.01.023.007.035-.008.038a.048.048 0 00-.012.004.025.025 0 00-.009.006.182.182 0 01-.058.047 2.598 2.598 0 00-.465.301c-.076.061-.154.118-.211.176-.407.409-.7.904-.822 1.464-.068.317-.11.638-.065.962.065.481.232.92.5 1.316 1 1.468 3.101 1.735 4.46.575.052-.044.1-.04.12-.116l.05-.192a.067.067 0 01-.008.049.012.012 0 000 .01c0 .003.002.004.003.005a3.256 3.256 0 01.396.135.013.013 0 01.007.006.036.036 0 01.004.012l.003.02c0 .002.003.005.006.008a.042.042 0 00.012.007c.206.078.344.14.414.19a.451.451 0 00.106.057.039.039 0 00.024 0c.045-.015.02.113.028.15a20.907 20.907 0 01-.448 2.832.135.135 0 01-.105-.088c-.114-.316-.397-.621-.677-.809a.903.903 0 00-.29-.14 1.056 1.056 0 01-.208-.062.016.016 0 00-.011-.002.014.014 0 00-.008.006.325.325 0 00-.053.121c-.006.032-.032.04-.044.07-.09.22-.184.439-.28.656-.005-.025-.026-.03-.063-.017a.154.154 0 01-.044.009c-.143.007-.279.046-.404.05-.146.004-.32-.014-.457.024-.064.017-.132-.016-.18-.017-.157-.005-.353.013-.525-.027-.118-.027-.235-.025-.354-.062-.064-.02-.124-.013-.189-.034a1.317 1.317 0 00-.17-.039 2.87 2.87 0 01-.547-.18.045.045 0 01-.02-.015.224.224 0 01-.046-.105.65.65 0 00-.016-.105 67.14 67.14 0 00-.58-2.288 41.603 41.603 0 00-.869-2.782 38.98 38.98 0 00-.688-1.845 64.432 64.432 0 00-1.014-2.414z" fill="#E50D6C"/><path d="M10.777 19.35c-.593.378-1.2.73-1.824 1.057-.19-.81-.567-1.565-1.145-2.165-.064-.066-.146-.17-.236-.246l-.173-.146a4.17 4.17 0 00-.527-.394 4.992 4.992 0 00-2.163-.776c-.072-.008-.186-.035-.276-.018a.064.064 0 00-.055.054c-.023.116-.06.098-.167.093a2.032 2.032 0 00-.36.018.008.008 0 01-.004-.002.007.007 0 01-.001-.003v-.004c.047-.122-.108-.173-.197-.154a5.684 5.684 0 01-.09.018 4.34 4.34 0 00-1.05.235.016.016 0 00-.008.007.022.022 0 00-.004.01c0 .018-.012.024-.035.018a.115.115 0 00-.067.004 5.03 5.03 0 00-1.723 1.075.018.018 0 00-.005.01v.01a.067.067 0 01-.004.054c-.535-.695-.918-1.613-.306-2.4.009.07.146-.102.152-.113.012-.024.079-.114.107-.097a.035.035 0 00.011.004.02.02 0 00.011 0 2.61 2.61 0 00.267-.124c.209-.106.458-.213.748-.32a7.982 7.982 0 011.35-.358c.066-.012.15-.01.232-.03.115-.028.237-.039.367-.034.064.003.111-.023.166-.023h.747c.034 0 .075.026.123.024a1.57 1.57 0 01.405.034.981.981 0 00.145.016c.07.004.141.027.194.037a7.619 7.619 0 011.564.46c.052.022.096.052.135.07a5.89 5.89 0 011.223.709c.146.114.319.212.447.343.118.12.209.204.274.253.099.075.147.148.218.224.089.095.185.168.256.263.142.188.293.369.432.56a.38.38 0 01.07.138.016.016 0 00.006.008.018.018 0 00.01.003c.027 0 .23.342.252.386.135.265.28.525.388.802l.134.34c.01.025.005.048-.014.07z" fill="#FF9E51"/><path d="M31.84 15.054l.582 1.09.385.747-.26.107a4.96 4.96 0 00-.623.31.033.033 0 00-.016.034c0 .005.002.009.005.013l.164.265c.002.005.004.01.003.015 0 .005-.003.01-.007.014-.102.105-.232.199-.326.291-.103.1-.222.202-.309.316-.057.075-.128.138-.18.21a1.22 1.22 0 01-.154.186c-.021.02-.029.04-.024.059.001.006 0 .008-.006.004-.022-.014-.026-.006-.012.025l-.239-.153-1.546-1.006a.153.153 0 00-.06-.051.025.025 0 01-.01-.008.02.02 0 01-.004-.01.177.177 0 01.033-.129 7.323 7.323 0 011.379-1.443c.04-.031.041-.065.005-.1l-.061-.058c-.03-.03-.026-.056.014-.082a6.5 6.5 0 011.267-.646z" fill="#FF9C52"/><path d="M17.843 15.412a6.113 6.113 0 01-.316 1.177c-.42 1.044-1.115 1.893-2.013 2.58l-.21.143-.909.587a.338.338 0 00-.169.012c-.693.2-1.5.372-2.257.527-.2.04-.419.066-.601.098-.188.033-.375.062-.563.086-.079.01-.177.032-.267.04-.207.017-.413.043-.62.06-.117.011-.331.045-.502.043-.05-.001-.093.019-.141.02-.14 0-.28.003-.418.01-.04 0-.075.02-.113.02h-.236c-.072 0-.165.019-.252.008a.024.024 0 01-.01-.004.043.043 0 01-.01-.01c-.022-.029-.048.036-.09.017l.806-.419c.624-.327 1.232-.68 1.825-1.057.606-.382 1.18-.806 1.722-1.272.296-.248.573-.516.83-.802.02-.023.04-.03.06-.023.01.004.018.006.024.005.085-.004.133-.054.22-.053a.052.052 0 00.025-.006c.12-.061.256-.085.424-.143.324-.111.652-.209.93-.32a.67.67 0 01.143-.045c.024-.003.049-.035.081-.044a1.3 1.3 0 00.19-.067c.117-.052.216-.088.338-.139a21.295 21.295 0 001.593-.735c.13-.066.258-.137.383-.211.042-.025.063-.045.064-.059 0-.027.014-.036.04-.024z" fill="#FF5E64"/><path d="M33.706 15.514c.283.77.52 1.555.709 2.353a.861.861 0 00-.245.047c-.067.025-.135.027-.19.047-.16.057-.32.112-.482.164a.05.05 0 00-.02.014c-.018.02-.037.016-.057-.009l-.614-1.239-.385-.747c.024.049.05.052.077.01a.024.024 0 01.02-.011c.076-.001.137-.04.195-.06.332-.12.665-.22 1.005-.319a.015.015 0 00.008-.006.014.014 0 00.003-.01 2.076 2.076 0 00-.021-.14c-.006-.033-.032-.053-.003-.094z" fill="#FF8F56"/><path d="M26.946 16.163l.415.24c.643.385 1.282.778 1.916 1.178l1.546 1.006a15.998 15.998 0 01-.447 2.35c-.02.076-.068.071-.12.115-1.358 1.16-3.46.893-4.459-.575a3.028 3.028 0 01-.5-1.316c-.045-.324-.004-.645.065-.962.121-.56.415-1.055.821-1.464.057-.058.136-.115.212-.176.143-.117.298-.217.465-.3a.182.182 0 00.058-.048.025.025 0 01.008-.006.046.046 0 01.012-.004c.016-.003.018-.015.008-.038z" fill="#EE0E6B"/><path d="M24.145 16.544c.245.61.474 1.224.689 1.845-.09.022-.167-.01-.235-.017a35.963 35.963 0 01-.5-.065c-.147-.02-.311-.015-.467-.043-.081-.015-.163.003-.242-.01a.679.679 0 00-.09-.01c-.368-.003-.736 0-1.104.011a.404.404 0 00-.088.015c-.06.016-.133.012-.177.016-.128.01-.258.013-.384.04-.094.02-.223.022-.288.032-.641.097-1.27.244-1.886.44-.073.024-.15.069-.232.092a6.287 6.287 0 00-.797.302.13.13 0 00-.07.071.077.077 0 01-.065.05 5.474 5.474 0 001.058-2.164c.056-.035.018-.097.046-.146 0-.002.002-.002.003-.003a.009.009 0 01.004-.001h.004l.005.002c.01.007.025.007.046 0 .202-.06.437-.122.703-.183.115-.026.22-.046.315-.059.097-.013.2-.047.305-.056a.665.665 0 00.125-.023c.12-.034.198-.015.301-.041a1.29 1.29 0 01.329-.04c.026 0 .06-.005.103-.016.058-.014.109.003.17-.02.067-.025.185-.012.26-.012.05 0 .116-.005.198-.015a1.64 1.64 0 01.324-.01c.063.005.108-.026.166-.026h.28c.055 0 .137.006.249.019.097.01.194.013.292.005.067-.005.113.027.174.026.105-.001.21 0 .314.005.054.003.104.046.162-.011z" fill="#CF0A6F"/><path d="M18.715 18.563a5.474 5.474 0 01-.506.75 6.66 6.66 0 01-1.314 1.222l-.03.021c-.442-.47-.892-.932-1.35-1.387.897-.687 1.592-1.536 2.012-2.58.034.001.057.014.07.048a6.368 6.368 0 001.07 1.915.024.024 0 00.01.007.03.03 0 00.012.003h.026z" fill="#840662"/><path d="M8.953 20.407l-.807.42-1.565.737.044-.059a.027.027 0 00.004-.01v-.012c-.032-.091-.027-.198-.036-.267a2.433 2.433 0 00-.766-1.492.666.666 0 00-.069-.054c-.06-.042-.119-.105-.168-.14a2.7 2.7 0 00-.851-.392c-.092-.024-.196-.025-.296-.044-.185-.035-.357-.026-.538-.017a.39.39 0 00-.09.015c-.079.023-.174.029-.236.041a1.979 1.979 0 00-.328.099c-.229.09-.443.195-.631.35a3.18 3.18 0 00-.423.418 2.12 2.12 0 00-.384.662 2.474 2.474 0 00-.119.47 8.55 8.55 0 00-.004.694c.002.072.032.123.043.195.033.214.117.387.215.58.107.209.242.392.404.565.1.105.226.192.346.28.196.143.409.252.638.328.204.068.378.114.58.11a.05.05 0 01.024.005c.07.033.324.022.354.012a.35.35 0 01.176-.02c.07.013.123-.017.173-.023.042-.006.084-.014.126-.024a.034.034 0 01.024.003c.02.011.03.006.026-.014-.001-.005 0-.013.001-.025l.016-.112c0-.005.002-.01.004-.014.001-.003.003-.006.005-.006.008-.004.013 0 .015.012-.2 1.196.214 2.36.686 3.444.008.018.002.03-.017.038-2.097-1.528-3.81-3.64-4.442-6.16a10.75 10.75 0 01-.32-2.715.128.128 0 00-.028-.078l-.076-.102a.067.067 0 00.005-.053.022.022 0 010-.011c0-.004.002-.007.004-.01a5.03 5.03 0 011.723-1.075.115.115 0 01.067-.004c.023.006.035 0 .036-.017 0-.004 0-.008.003-.011a.016.016 0 01.008-.007c.34-.122.69-.2 1.051-.235l.089-.018c.089-.019.244.032.197.154v.004l.001.003.003.002h.004c.119-.016.238-.022.357-.018.107.005.144.023.167-.093a.064.064 0 01.056-.054c.089-.017.203.01.276.018.769.086 1.49.345 2.162.776.207.133.382.264.527.394l.173.146c.09.076.172.18.236.247.578.599.956 1.354 1.145 2.164z" fill="#FFAB4D"/><path d="M32.807 16.891l.614 1.24.324.685a.038.038 0 01-.018-.008.032.032 0 00-.01-.006.019.019 0 00-.011 0c-.168.04-.334.103-.497.187a.034.034 0 00-.008.054c.054.05.07.11.111.158a.86.86 0 01.143.244.018.018 0 010 .011.019.019 0 01-.006.01c-.176.146-.33.31-.464.494a.438.438 0 01-.062.058.019.019 0 01-.008.004h-.01c-.028-.01-.007.015-.002.019.036.024.06.056.07.098l-1.33-1.012a.738.738 0 00-.124-.081l-.457-.306c-.013-.03-.01-.039.012-.025.006.004.008.002.006-.004-.005-.02.003-.039.024-.058a1.28 1.28 0 00.154-.186c.052-.073.123-.136.18-.211.087-.114.206-.215.309-.316.094-.092.224-.186.327-.291a.024.024 0 00.006-.014c0-.005 0-.01-.003-.015l-.164-.265a.035.035 0 01-.004-.026.034.034 0 01.016-.02c.204-.117.4-.223.622-.312.086-.034.173-.069.26-.106z" fill="#FFA94E"/><path d="M34.416 17.867c.264 1.059.436 2.13.585 3.21v.308c-.055.004-.09-.012-.106-.047a77.672 77.672 0 00-1.15-2.522l-.323-.686c.02.025.04.028.057.01a.05.05 0 01.02-.015c.161-.052.322-.107.481-.164.056-.02.124-.022.19-.047a.861.861 0 01.246-.047z" fill="#FF9E51"/><path d="M24.834 18.39c.323.917.613 1.844.87 2.78-.006.028-.011.032-.018.012a.01.01 0 00-.012-.007.11.11 0 01-.06-.003 8.27 8.27 0 00-2.122-.416c-.067-.004-.158.014-.238-.004-.188-.043-.41-.025-.604-.022a.29.29 0 00-.117.021.056.056 0 01-.024.006 4.153 4.153 0 00-.733.04c-.109.02-.195.032-.257.039-.066.007-.14.028-.218.042a8.337 8.337 0 00-2.67.964c-.14.078-.278.159-.416.24a.027.027 0 00-.01.009.022.022 0 00-.003.01l-.001.03a47.403 47.403 0 00-1.314-1.544.028.028 0 01-.006-.011.017.017 0 010-.01l.014-.031a6.623 6.623 0 001.314-1.222.077.077 0 00.066-.05.131.131 0 01.07-.071c.26-.115.522-.224.797-.302.081-.023.16-.068.232-.091a12.087 12.087 0 011.886-.44c.065-.01.194-.014.288-.033.126-.027.256-.03.384-.04.044-.004.117 0 .177-.016a.41.41 0 01.087-.015c.368-.01.737-.014 1.105-.012.018 0 .048.004.09.011.079.013.16-.005.242.01.155.028.32.024.467.043l.5.065c.067.007.145.039.234.017z" fill="#D60B6E"/><path d="M30.823 18.587l.239.153.457.306a21.41 21.41 0 01-.098 2.348c-.007-.038.017-.166-.028-.152a.039.039 0 01-.024.001.452.452 0 01-.106-.058 2.228 2.228 0 00-.414-.19.044.044 0 01-.012-.006l-.006-.009-.003-.02a.036.036 0 00-.004-.01.013.013 0 00-.007-.007 3.256 3.256 0 00-.396-.135.011.011 0 01-.003-.004.012.012 0 010-.011.067.067 0 00.007-.049c.182-.71.315-1.429.398-2.157z" fill="#D40B6E"/><path d="M33.745 18.816a77.77 77.77 0 011.149 2.522c.015.035.05.05.106.047v.277a.017.017 0 00-.008.006.01.01 0 01-.005.003l-.006-.001-2.008-1.531a.162.162 0 00-.07-.098c-.006-.004-.027-.029 0-.02a.02.02 0 00.02-.003.441.441 0 00.061-.058c.134-.183.289-.348.464-.494a.018.018 0 00.006-.02.86.86 0 00-.142-.245c-.041-.049-.058-.108-.112-.158a.035.035 0 01-.008-.013.033.033 0 01.004-.03.035.035 0 01.012-.011c.164-.084.33-.147.498-.187h.01a.033.033 0 01.01.006.038.038 0 00.019.008zM6.58 21.564c-.87.42-1.523 1.112-1.707 2.07l-.013.044c-.002-.012-.007-.016-.015-.012-.002 0-.004.003-.006.006a.048.048 0 00-.003.014l-.016.112a.102.102 0 00-.002.025c.004.02-.005.025-.026.014a.034.034 0 00-.023-.003c-.042.01-.084.018-.126.024-.05.006-.102.036-.173.024a.35.35 0 00-.176.019c-.03.01-.284.02-.354-.012a.05.05 0 00-.024-.005 1.662 1.662 0 01-.58-.11 2.305 2.305 0 01-.638-.328c-.12-.088-.246-.175-.346-.28a2.43 2.43 0 01-.404-.566c-.098-.192-.182-.365-.215-.58-.011-.07-.042-.122-.043-.194a8.557 8.557 0 01.004-.695c.01-.105.05-.262.119-.47A2.12 2.12 0 012.196 20a3.18 3.18 0 01.424-.418c.188-.155.402-.26.63-.35.107-.042.216-.075.33-.099.06-.012.156-.018.235-.041a.39.39 0 01.09-.015c.18-.009.352-.018.538.017.1.019.204.02.295.044a2.7 2.7 0 01.852.393c.05.034.107.097.168.14a.66.66 0 01.069.053c.433.409.688.906.766 1.492.009.07.004.175.035.267a.022.022 0 01.001.011.026.026 0 01-.005.011l-.043.06z" fill="#FFB549"/><path d="M15.514 19.169c.458.455.908.918 1.35 1.387A23.46 23.46 0 0015 22.132c0-.115-.034-.226-.034-.332v-.826c0-.08.05-.216.05-.357 0-.057.022-.117.029-.155.033-.183.075-.363.127-.542.053-.182.146-.395.212-.595a.02.02 0 000-.012.015.015 0 00-.005-.008.035.035 0 00-.022-.006.012.012 0 00-.008.004.024.024 0 00-.005.011c-.002.017-.016.016-.04-.002l.21-.143z" fill="#AC0A65"/><path d="M15 22.132l-1.015 1.003-.083.078c-.014-.016-.007-.036.02-.06a.054.054 0 00.016-.055 5.11 5.11 0 01-.176-.884l-.025-.215a2.586 2.586 0 01-.01-.537c.012-.186-.011-.377.004-.549.015-.173.034-.346.055-.518.006-.05-.014-.071-.06-.065l.669-.43.91-.588c.024.018.037.019.04.002 0-.004.002-.008.004-.01a.012.012 0 01.008-.005c.008 0 .015.001.022.006a.015.015 0 01.006.008.02.02 0 010 .012c-.067.2-.16.413-.213.595a5.54 5.54 0 00-.127.542c-.006.038-.029.098-.029.155 0 .14-.05.277-.05.357v.826c0 .106.034.217.034.332z" fill="#9A0864"/><path d="M14.395 19.9l-.67.43-1.688 1.018-.61.358-.351.196c-.667.367-1.335.73-2.006 1.09a8.96 8.96 0 01-.378.197 5.362 5.362 0 00-1.52.66c-.038-.01-.054-.031-.045-.062a.023.023 0 000-.012.017.017 0 00-.005-.009c-.055-.044-.55-.018-.698-.024a.334.334 0 01-.087-.013.071.071 0 00-.025-.004 1.92 1.92 0 01-.314-.018c-.143-.02-.265-.013-.402-.017-.052-.001-.1-.026-.158-.025a.46.46 0 01-.104-.006c-.134-.03-.262.005-.378-.032a.087.087 0 00-.037-.005.013.013 0 01-.01-.002.01.01 0 01-.002-.003.01.01 0 01-.001-.004c-.003-.077-.003.01-.033.02.184-.957.836-1.648 1.707-2.069l1.566-.738c.042.018.068-.046.09-.016a.043.043 0 00.01.009.022.022 0 00.01.004c.087.01.18-.009.252-.009h.236c.038 0 .073-.018.113-.02.139-.006.278-.009.418-.01.048 0 .091-.02.141-.02.17.003.385-.03.501-.041.208-.018.414-.044.62-.061.09-.008.19-.03.268-.04.188-.024.376-.053.563-.086.182-.032.401-.058.6-.099.758-.154 1.565-.326 2.258-.526a.338.338 0 01.169-.012z" fill="#FF5267"/><path d="M13.902 23.213c-.421.443-.834.893-1.24 1.35a.119.119 0 01.022-.078.03.03 0 00.004-.01v-.012a7.124 7.124 0 00-.157-.435 6.266 6.266 0 01-.287-1.062c-.008-.043-.03-.094-.034-.148-.005-.109-.041-.208-.048-.315a1.283 1.283 0 00-.023-.18 1.617 1.617 0 01-.03-.42c.004-.08-.027-.15-.027-.222v-.262c0-.04-.015-.064-.045-.071l1.689-1.018c.046-.006.066.015.06.065-.021.172-.04.345-.055.518-.015.172.008.363-.003.549-.014.224-.014.353.009.537l.025.215c.033.301.092.596.176.884a.054.054 0 01-.016.056c-.027.023-.034.043-.02.06z" fill="#840662"/><path d="M16.895 20.535l-.013.03a.017.017 0 00-.001.011.028.028 0 00.006.011c.45.506.887 1.02 1.314 1.545.496.623.97 1.26 1.424 1.914l.002.025c0 .004 0 .007-.002.01a.014.014 0 01-.008.006c-.119.033-.23.018-.345.036-.111.017-.194-.003-.281.017a1.31 1.31 0 01-.287.027.024.024 0 01-.013-.013 95.276 95.276 0 00-.016-.957c0-.032-.015-.063-.01-.106a.034.034 0 00-.006-.023.035.035 0 00-.02-.014c-.087-.024-.176-.034-.26-.058a1.241 1.241 0 00-.216-.043c-.047-.005-.104-.032-.164-.035-.113-.007-.208-.05-.32-.052a.9.9 0 01-.198-.027.99.99 0 00-.305-.026.224.224 0 01-.08-.012c-.113-.035-.274-.01-.396-.02a3.793 3.793 0 00-.31-.02h-.69a.165.165 0 00-.054.009c-.1.033-.254.02-.36.018a.771.771 0 00-.143.017c-.095.019-.191-.01-.284.026a.059.059 0 01-.024.005c-.061-.004-.117.02-.168.024a2.325 2.325 0 00-.198.022c-.067.01-.118.05-.2.013-.003-.002-.006-.002-.01-.002a.02.02 0 00-.01.005l-.265.237L15 22.132a23.48 23.48 0 011.864-1.576l.03-.021z" fill="#C50971"/><path d="M25.703 21.17c.202.742.395 1.505.58 2.29a.65.65 0 01.015.104.224.224 0 00.047.105.045.045 0 00.02.016c.238.098.42.158.546.18.07.011.127.024.17.038.065.02.125.015.19.034.119.037.236.034.354.062.172.04.367.022.524.027.048.001.116.034.18.017.138-.038.312-.02.457-.024.126-.004.262-.043.405-.05a.134.134 0 00.044-.01c.036-.012.057-.007.063.018a31.178 31.178 0 01-.833 1.783 14.21 14.21 0 00-.54-.02 5.954 5.954 0 01-.89-.092.063.063 0 01-.024-.01c-.044-.03-.24-.047-.305-.06a.01.01 0 00-.005 0 .01.01 0 00-.004.002.01.01 0 00-.005.009l-.001.024a38.158 38.158 0 00-.225-1.224c-.02-.103-.054-.084-.123-.132-.254-.177-.497-.29-.735-.434-.04-.025-.115-.043-.167-.067a5.98 5.98 0 00-2.098-.536c-.056-.001-.106-.025-.166-.025h-.63c-.045 0-.1.029-.16.03a3.183 3.183 0 00-.437.046 6.349 6.349 0 00-1.552.446c-.203.09-.53.248-.723.394l-.05-.065a36.423 36.423 0 00-1.424-1.914v-.03l.004-.011a.027.027 0 01.01-.009c.137-.082.276-.162.416-.24a8.337 8.337 0 012.67-.964c.078-.014.151-.035.217-.042.063-.007.149-.02.258-.04.17-.03.415-.043.732-.039a.056.056 0 00.025-.006.29.29 0 01.117-.02c.193-.004.415-.022.604.02.08.019.17 0 .238.005a8.27 8.27 0 012.12.416.106.106 0 00.061.003.01.01 0 01.013.007c.006.02.012.016.017-.011z" fill="#DE0C6D"/><path d="M12.037 21.348c.03.007.045.03.045.071v.262c0 .072.031.142.027.222-.008.142.002.281.03.42.011.052.019.113.023.18.007.107.043.206.048.315.003.054.025.105.034.148.082.427.178.78.287 1.062.077.199.13.344.157.435a.023.023 0 010 .011.03.03 0 01-.004.011.119.119 0 00-.022.078l-.425.477c-.009-.005-.016-.01-.018-.021-.216-.85-.425-1.702-.625-2.556l-.168-.757.61-.358z" fill="#730661"/><path d="M11.426 21.706l.168.757c-.032-.025-.057-.025-.075.001a3.946 3.946 0 00-.649 1.81c-.017.18-.068.446-.018.656.014.059.01.144.014.18.037.338.115.672.235 1.002a.021.021 0 01-.01.026c-.019.01-.024.02-.015.03l-.48.458c.013-.034.015-.06.007-.08-.653-1.546-.465-3.227.515-4.596a.025.025 0 00.005-.012c0-.003 0-.007-.002-.01-.008-.016-.024-.025-.046-.026l.351-.196z" fill="#960764"/><path d="M11.076 21.902c.022.001.037.01.046.026a.018.018 0 01.001.01.025.025 0 01-.004.012c-.98 1.369-1.169 3.05-.516 4.596.008.02.006.046-.006.08l-.386.374a76.082 76.082 0 01-1.52-3.81c.044-.02.17-.085.38-.198.67-.36 1.339-.723 2.005-1.09z" fill="#860662"/><path d="M11.594 22.463c.2.854.408 1.706.625 2.556.002.01.01.016.018.02l-.018.025-1.144 1.103c-.008-.01-.003-.019.015-.029a.022.022 0 00.01-.011.02.02 0 000-.015 4.259 4.259 0 01-.234-1.002c-.004-.036 0-.121-.014-.18-.05-.21 0-.477.018-.656a3.946 3.946 0 01.649-1.81c.017-.026.042-.026.075-.001z" fill="#A70965"/><path d="M19.625 24.046l.05.065a47.1 47.1 0 011.313 2.023l.242.414c.03.088-.042.083-.099.067-.104-.03-.203-.045-.317-.07-.097-.02-.186-.02-.284-.042-.09-.02-.191.003-.285-.013-.194-.032-.378-.01-.572-.016a.332.332 0 00-.134.024.052.052 0 01-.025.004 1.388 1.388 0 00-.231-.002c-.05.003-.091.03-.165.022-.113-.012-.248.058-.388.056a.02.02 0 01-.011-.003.023.023 0 01-.008-.008l-.046-.083a.022.022 0 01-.003-.01l.003-.012c.008-.017 0-.025-.024-.023a.02.02 0 01-.01-.002.013.013 0 01-.006-.006c-.003-.007 0-.01.007-.01l.014-.003a.022.022 0 00.008-.003c.03-.025-.052-.037-.013-.048a.017.017 0 00.008-.005.013.013 0 00.004-.007c.004-.059-.02-.095-.07-.108-.18-.046-.353-.118-.536-.164-.18-.044-.449-.123-.687-.143-.126-.01-.251-.059-.38-.057a.38.38 0 01-.1-.013c-.068-.018-.137.002-.202-.014a.43.43 0 00-.086-.015 38.348 38.348 0 00-.89-.006c-.062 0-.115.024-.18.027a.921.921 0 00-.133.015c-.086.017-.165.005-.249.024a2.68 2.68 0 01-.283.048c-.071.008-.15.009-.218.028a6.891 6.891 0 01-.099.028c-.15.034-.3.074-.447.12-.052.017-.12.024-.179.046a3.843 3.843 0 01-.129.048c-.323.098-.678.27-.965.397a.586.586 0 00-.152.098c-.061-.218-.431-1.644-.449-1.65l.019-.024.424-.477c.406-.457.82-.907 1.24-1.35l.083-.078.265-.237a.02.02 0 01.01-.005.02.02 0 01.01.002c.082.037.133-.003.2-.013a2.22 2.22 0 01.198-.022c.05-.004.107-.028.168-.024a.059.059 0 00.024-.005c.093-.036.189-.007.284-.026a.771.771 0 01.142-.017c.107.001.262.015.361-.018a.168.168 0 01.054-.008h.689c.068 0 .171.006.31.018.122.012.283-.014.396.02.031.01.058.014.08.013a.988.988 0 01.305.026.906.906 0 00.197.027c.113.003.208.045.321.052.06.003.117.03.164.035.073.008.145.022.216.043.084.024.172.034.26.058a.035.035 0 01.02.014.034.034 0 01.006.023c-.005.043.01.074.01.106a95.23 95.23 0 01.016.957.024.024 0 00.022.014c.1-.002.185-.007.278-.028.086-.02.17 0 .281-.017.115-.018.226-.003.345-.036a.014.014 0 00.008-.006.017.017 0 00.002-.01l-.002-.025z" fill="#CF0A6F"/><path d="M30.973 24.225a25 25 0 01-.547 2.017c-.007-.018-.018-.024-.034-.018a.017.017 0 01-.01 0 .016.016 0 01-.008-.005c-.017-.02-.033-.02-.055-.005a1.842 1.842 0 01-2.093.022l.239-.476c.296-.586.574-1.18.832-1.783.096-.217.19-.436.28-.656.012-.03.038-.038.045-.07a.326.326 0 01.052-.121.014.014 0 01.008-.006 1.052 1.052 0 00.218.064.9.9 0 01.291.14c.28.188.563.493.677.81a.135.135 0 00.105.087z" fill="#EE0E6B"/><path d="M26.69 25.613c.15.91.273 1.823.37 2.74a.06.06 0 01-.005.024l-.384.687c-.019.034-.012.06.02.08.135.083.26.186.375.312.082.088.087.159.093.274.032.525.05.949.054 1.272 0 .04-.018.08-.055.12a8.56 8.56 0 01-.264.27c-.114.11-.255.175-.394.258a.023.023 0 00-.008.007.031.031 0 00-.004.012.067.067 0 01-.012.027l-.4-.696c.298-.098.475-.287.529-.568a.589.589 0 00-.122-.47c-.057-.08-.15-.127-.23-.192a.022.022 0 01-.006-.01.019.019 0 010-.01.279.279 0 01.07-.134.055.055 0 00.013-.021.209.209 0 01.039-.08.9.9 0 00.16-.262.015.015 0 000-.01.025.025 0 00-.005-.01.058.058 0 01-.014-.044 3.048 3.048 0 00-.056-.694 3.489 3.489 0 00-.735-1.576c-.126-.154-.212-.261-.339-.372a3.934 3.934 0 00-1.089-.687 4.32 4.32 0 00-.49-.166 2.578 2.578 0 00-.513-.088c-.094-.006-.186-.026-.247-.03-.188-.013-.32.005-.554.03a3.6 3.6 0 00-1.436.465c-.028.016-.073.011-.064.063a47.1 47.1 0 00-1.312-2.023c.193-.146.52-.305.723-.394a6.349 6.349 0 011.552-.446 3.1 3.1 0 01.438-.047c.06 0 .114-.03.16-.03h.63c.06 0 .109.025.165.026a5.98 5.98 0 012.098.536c.052.024.127.042.168.067.237.144.48.257.734.434.07.048.102.029.123.132.081.407.156.814.225 1.224z" fill="#E60D6C"/><path d="M7.172 23.85c-1.099.745-1.605 1.872-1.58 3.178 0 .044-.014.11.002.168.002.008 0 .01-.008.007a.159.159 0 01-.058-.043c.02-.007.025-.02.017-.038-.472-1.084-.885-2.248-.685-3.444l.013-.044c.03-.011.03-.098.032-.021l.001.004a.01.01 0 00.007.005h.005a.089.089 0 01.038.005c.116.037.244.003.378.032a.46.46 0 00.103.006c.058-.001.107.024.158.026.138.003.26-.004.402.016.104.014.21.02.315.018.007 0 .015.001.025.004a.33.33 0 00.087.013c.148.006.643-.02.697.024a.017.017 0 01.006.01v.01c-.01.032.006.053.045.064z" fill="#FF4669"/><path d="M12.219 25.064c.017.006.387 1.432.448 1.65.264.992.541 1.98.83 2.965l.39 1.291.221.72c-.033-.006.024.058-.038.021a.034.034 0 00-.015-.004.034.034 0 00-.016.003c-.228.12-.465.22-.71.3-.11.035-.26.07-.388.112-.086.027-.166.01-.25.069a.027.027 0 00-.013.02l-.003.038A80.266 80.266 0 0110.21 27l.387-.373.479-.459 1.143-1.103z" fill="#B227AD"/><path d="M26.076 31l-.305-.534a.016.016 0 00-.013-.008c-.003 0-.006 0-.008.002a42.268 42.268 0 01-1.56 2.052.112.112 0 01-.041-.102c0-.01 0-.017-.004-.024-.837-2-1.799-3.973-2.915-5.838l-.243-.414c-.009-.052.036-.047.064-.063a3.601 3.601 0 011.436-.466c.234-.024.366-.042.554-.03.06.005.153.025.247.031.162.01.332.04.513.088.165.045.329.1.49.166.402.163.764.406 1.09.687.126.11.212.218.338.372.377.462.623.987.735 1.576.046.237.064.468.056.694 0 .018.004.033.014.044a.024.024 0 01.006.01.015.015 0 010 .01.901.901 0 01-.162.262.209.209 0 00-.038.08.055.055 0 01-.013.021.279.279 0 00-.07.133c-.002.004-.002.008 0 .011a.022.022 0 00.007.01c.078.065.172.113.23.192.1.14.154.295.12.47-.053.281-.23.47-.528.568z" fill="#EE0E6B"/><path d="M28.465 25.76l-.239.476c-.355.682-.725 1.36-1.108 2.033-.022.039-.012.067.029.084.084.036.172.108.263.144l.06.023c.333.158.72.262 1.067.324.034.006.09.024.137.024a.8.8 0 01.102.005c.195.03.392.002.58.058a.02.02 0 01.01.005.026.026 0 01.005.01l.01.033a30.233 30.233 0 01-1.071 2.17c-.018-.03-.015-.057.008-.082a.052.052 0 00.008-.011.023.023 0 00.003-.01l-.003-.084a.013.013 0 00-.004-.009.018.018 0 00-.01-.005c-.091-.012-.157-.048-.251-.052-.09-.005-.172-.04-.259-.055-.19-.034-.379-.1-.57-.156a.01.01 0 00-.01.001.01.01 0 00-.004.008c0 .36.015.706.004 1.055-.004.126-.095.3-.16.41a.073.073 0 01-.029.027.709.709 0 00-.197.146l-.36-.636a.067.067 0 00.012-.027.02.02 0 01.005-.012.023.023 0 01.007-.008c.139-.082.28-.148.394-.258a8.56 8.56 0 00.264-.27c.037-.039.056-.078.055-.119a28.913 28.913 0 00-.053-1.272c-.007-.115-.012-.186-.094-.274a1.74 1.74 0 00-.374-.311c-.033-.02-.04-.047-.02-.081l.383-.686a.042.042 0 00.005-.025 48.57 48.57 0 00-.369-2.74l.001-.024.002-.005a.01.01 0 01.003-.004.01.01 0 01.005-.002.01.01 0 01.004 0c.065.013.261.03.306.06a.063.063 0 00.023.01c.31.055.607.085.891.092.238.005.418.012.54.02z" fill="#D60B6E"/><path d="M21.23 26.548c1.116 1.865 2.078 3.838 2.915 5.838a.052.052 0 01.004.024.112.112 0 00.042.101 39.12 39.12 0 01-4.6 4.767.03.03 0 01-.007-.016l-.001-.003-.002-.001h-.004c-.021.016-.024.012-.01-.011a.036.036 0 01.014-.013c.163-.084-.293-.076-.31-.08-.12-.028-.24-.035-.36-.06-.15-.03-.322-.05-.478-.1-.04-.013-.081-.01-.125-.027-.163-.065-.306-.09-.449-.153a2.848 2.848 0 00-.332-.123c.108-.497.207-.995.298-1.495l.163-.91.015-.05a.034.034 0 01.007-.012.032.032 0 01.011-.008.027.027 0 01.025.002c.336.218.678.372 1.027.46.245.063.406.095.481.096.219.004.452.016.656-.005 1.186-.122 2.207-.856 2.658-1.939.07-.169.117-.278.127-.433a.531.531 0 01.041-.127c.013-.032.034-.14.063-.326.018-.11.02-.3.01-.572-.003-.052-.02-.114-.029-.179-.201-1.549-1.637-2.766-3.234-2.708-.052.002-.12-.008-.179 0a1.28 1.28 0 01-.13.015c-.287.01-.584.097-.86.202a.112.112 0 00-.076.094l-.062.427c-.008.057-.034.066-.077.027a.586.586 0 00-.115-.078 4.736 4.736 0 00-1.919-.562 5.495 5.495 0 00-.723.013c-.064.004-.145.029-.232.031a1.93 1.93 0 00-.404.072 5.3 5.3 0 00-.864.308c-.029.014-.044.03-.046.051a.028.028 0 01-.004.012.019.019 0 01-.007.007c-.22.114-.437.248-.653.403a.036.036 0 00-.014.02.116.116 0 00.008.086.095.095 0 01.007.013.03.03 0 01.002.01v.043c-.29-.985-.566-1.973-.831-2.965a.587.587 0 01.153-.098c.287-.128.641-.299.965-.397l.129-.048c.059-.022.126-.03.179-.046.147-.046.296-.086.447-.12l.098-.028c.068-.02.148-.02.219-.028.095-.011.19-.027.283-.048.084-.02.162-.008.248-.024a.923.923 0 01.133-.015c.066-.003.119-.027.18-.027.297-.002.594 0 .89.006.018 0 .047.005.086.015.065.016.134-.004.203.014a.34.34 0 00.1.013c.128-.002.254.046.38.057.238.02.506.1.686.143.183.046.356.119.537.165.05.012.074.048.07.107a.013.013 0 01-.004.007.017.017 0 01-.008.005c-.04.011.043.023.012.047a.024.024 0 01-.008.004.093.093 0 01-.014.002c-.007 0-.01.004-.006.011a.013.013 0 00.006.006.02.02 0 00.01.002c.024-.002.032.006.023.023a.027.027 0 00-.002.011c0 .004 0 .008.002.011l.047.083a.022.022 0 00.008.008.02.02 0 00.01.003c.14.002.276-.068.389-.056.074.009.114-.019.165-.022a1.37 1.37 0 01.231.002c.008 0 .016 0 .025-.004a.332.332 0 01.133-.024c.195.005.38-.017.573.016.093.016.195-.007.285.013.097.022.187.022.284.043.113.024.213.039.317.069.057.016.13.021.099-.067z" fill="#DC0C6D"/><path d="M30.425 26.242a29.11 29.11 0 01-1.045 2.737l-.01-.032a.026.026 0 00-.006-.01.02.02 0 00-.009-.006c-.187-.056-.385-.028-.58-.058a.799.799 0 00-.102-.005c-.047 0-.103-.018-.137-.024a4.354 4.354 0 01-1.067-.324l-.06-.023c-.09-.036-.178-.108-.263-.144-.041-.017-.05-.045-.029-.084.384-.673.753-1.351 1.108-2.033.65.432 1.453.416 2.093-.022.023-.015.038-.015.056.005a.016.016 0 00.008.005h.01c.015-.006.027 0 .034.018z" fill="#E20C6D"/><path d="M17.989 34.286l.174-1.153c.006-.035.02-.04.046-.014.284.29.622.498 1.015.624a.52.52 0 00.072.019c.084.014.158.038.245.041.057.003.15-.024.227.003a.312.312 0 00.078.02c.078.006.118.016.203.002.082-.013.162-.003.239-.018.872-.177 1.536-.759 1.78-1.59a3.92 3.92 0 00.056-.297c.009-.053.006-.127.028-.202.025-.085-.005-.191-.015-.268-.018-.13-.034-.269-.065-.39a2.042 2.042 0 00-.492-.895c-.235-.252-.495-.455-.817-.574a2.825 2.825 0 01-.092-.036 1.768 1.768 0 00-.344-.103c-.264-.05-.5-.08-.752-.013-.064.017-.127.01-.197.027a2.327 2.327 0 00-.598.236c-.102.058-.257.103-.236.26a.047.047 0 01-.003.025.668.668 0 00-.04.164c-.027.216-.057.432-.092.65-.004.026-.016.03-.035.01a3.24 3.24 0 00-1.378-.806 2.045 2.045 0 00-.32-.063 21.841 21.841 0 01-.325-.043 1.17 1.17 0 00-.383-.007c-.139.03-.278.029-.414.055-.415.078-.8.231-1.154.459a4.858 4.858 0 00-.49.392.028.028 0 01-.01.006.037.037 0 01-.013.001c-.017 0-.022.007-.015.022a.048.048 0 01.003.024.098.098 0 00.023.077.01.01 0 01.002.008.015.015 0 01-.004.008.029.029 0 00-.008.023l-.39-1.291v-.043c0-.003 0-.006-.002-.01a.073.073 0 00-.006-.013c-.014-.023-.017-.051-.008-.086a.035.035 0 01.014-.02c.216-.155.433-.29.653-.403a.02.02 0 00.007-.007.028.028 0 00.004-.012c.002-.02.017-.038.046-.05a5.39 5.39 0 01.864-.31 1.93 1.93 0 01.404-.07c.087-.003.167-.028.232-.032.293-.021.534-.026.723-.013a4.738 4.738 0 011.919.562.68.68 0 01.115.078c.043.039.068.03.076-.027l.063-.427a.112.112 0 01.076-.094c.276-.105.572-.191.86-.202.026 0 .07-.006.13-.015.06-.008.127.002.179 0 1.597-.058 3.032 1.16 3.234 2.708.008.065.025.127.028.179.011.271.008.462-.009.572-.03.186-.05.295-.063.326a.534.534 0 00-.042.127c-.01.155-.056.264-.127.433-.45 1.083-1.47 1.817-2.658 1.94-.204.02-.437.008-.655.004a2.766 2.766 0 01-.482-.096 3.43 3.43 0 01-1.026-.46.027.027 0 00-.025-.002.033.033 0 00-.018.02l-.015.05z" fill="#E50D6C"/><path d="M17.989 34.286l-.163.91c-.01.046-.029.07-.06.075a.068.068 0 00-.023.008c-.361.224-.827.42-1.256.453-.172.014-.321.031-.553.018-.022-.001-.058-.02-.07-.02a.647.647 0 01-.254-.025.25.25 0 00-.135-.012h-.01a.039.039 0 01-.012-.004.04.04 0 00-.03-.003l-.11-.312a152.998 152.998 0 01-1.204-3.685l-.221-.719a.03.03 0 01.008-.023.015.015 0 00.004-.008.01.01 0 00-.002-.008.098.098 0 01-.023-.077.05.05 0 00-.003-.024c-.007-.015-.002-.023.015-.022l.013-.001a.028.028 0 00.01-.006c.221-.193.385-.324.49-.392.354-.228.739-.38 1.154-.46.136-.025.275-.025.413-.054.09-.019.218-.017.384.007.108.015.216.03.325.043.126.016.233.037.32.063.53.155.99.424 1.378.806.02.02.031.015.035-.01.035-.218.065-.434.091-.65a.672.672 0 01.041-.164.047.047 0 00.003-.025c-.02-.157.134-.202.236-.26.183-.105.382-.183.598-.236.07-.018.133-.01.197-.027.252-.067.488-.037.752.013.118.023.232.057.343.103l.093.036c.322.119.582.322.817.574.239.255.403.553.492.895.031.121.047.26.065.39.01.077.04.183.015.268-.022.075-.02.149-.028.202a3.92 3.92 0 01-.055.296c-.245.832-.91 1.414-1.781 1.591-.077.015-.157.005-.24.018-.084.014-.124.004-.202-.002a.311.311 0 01-.078-.02c-.077-.027-.17 0-.227-.003-.087-.003-.161-.027-.245-.041a.52.52 0 01-.072-.019 2.442 2.442 0 01-1.015-.624c-.025-.026-.04-.021-.046.014l-.174 1.153z" fill="#ED0E6B"/><path d="M28.31 31.15a39.75 39.75 0 01-1.065 1.857c-.009.014-.017.014-.025 0l-.384-.675a.709.709 0 01.197-.146.073.073 0 00.029-.027c.065-.11.155-.284.16-.41.01-.349-.004-.695-.004-1.055l.001-.004a.01.01 0 01.003-.004.01.01 0 01.009-.002c.192.057.38.123.57.157.087.015.17.05.26.055.094.004.16.04.25.052.004 0 .008.002.01.005a.013.013 0 01.005.01l.002.082c0 .003 0 .007-.002.01a.052.052 0 01-.008.012c-.024.025-.027.053-.009.083z" fill="#C70A70"/><path d="M14.108 31.69c.386 1.232.787 2.46 1.204 3.684-.02.008-.026.02-.016.035a.047.047 0 01.008.022l.003.039a.014.014 0 01-.002.008.01.01 0 01-.003.003.253.253 0 00-.106.025c-.185.088-.382.151-.573.23a.017.017 0 01-.01.001.019.019 0 01-.01-.005c-.02-.022-.037-.022-.05-.002a87.6 87.6 0 01-1.878-3.48l.003-.039a.027.027 0 01.013-.02c.084-.06.164-.042.25-.07.129-.04.28-.076.388-.112a4.56 4.56 0 00.71-.299.034.034 0 01.016-.003.03.03 0 01.016.004c.062.037.004-.027.037-.021z" fill="#A529B1"/><path d="M17.825 35.196c-.091.5-.19.998-.298 1.495a58.99 58.99 0 01-.672 2.692.01.01 0 01-.004.003h-.01l-.094-.048c-.462-1.21-.903-2.428-1.325-3.652a.04.04 0 01.03.003.037.037 0 00.011.004h.011a.248.248 0 01.135.012.648.648 0 00.254.025c.012 0 .048.02.07.02.232.013.381-.005.553-.018.43-.033.895-.23 1.256-.453a.068.068 0 01.024-.008c.03-.004.05-.03.059-.075z" fill="#E40D6C"/><path d="M15.312 35.374l.11.312c.421 1.224.863 2.442 1.325 3.652 0 .014-.007.023-.02.027a90.465 90.465 0 01-2.176-3.635c.014-.02.03-.02.051.002a.019.019 0 00.01.005h.01c.19-.08.388-.143.574-.23a.251.251 0 01.105-.026.011.011 0 00.003-.003l.002-.004v-.004l-.003-.039a.048.048 0 00-.008-.022c-.01-.015-.005-.027.017-.035z" fill="#9A2CB4"/><path d="M17.528 36.691c.113.034.224.075.332.123.143.064.285.088.449.153.043.018.084.014.125.027.156.05.328.07.478.1.12.025.24.032.36.06.016.004.473-.004.31.08a.035.035 0 00-.015.013c-.014.023-.01.027.01.011h.004l.002.001.001.003a.03.03 0 00.008.016 44.247 44.247 0 01-2.762 2.227h-.005a.011.011 0 01-.009-.005l-.088-.135c.013-.004.02-.013.02-.027l.094.047.005.002.005-.001a.01.01 0 00.004-.003 58.99 58.99 0 00.672-2.692z" fill="#CD0A70"/></g></g></g></symbol><view id="icon__arrow--down-view" viewBox="0 0 24 24"/><use href="#icon__arrow--down" width="24" height="24" x="0" y="0"/><view id="icon__default-view" viewBox="0 80 24 24"/><use href="#icon__default" width="24" height="24" x="0" y="80"/></svg>